<?xml version="1.0" encoding="utf-8" standalone="no"?>
<!DOCTYPE svg PUBLIC "-//W3C//DTD SVG 1.1//EN"
  "http://www.w3.org/Graphics/SVG/1.1/DTD/svg11.dtd">
<svg xmlns:xlink="http://www.w3.org/1999/xlink" width="864pt" height="360pt" viewBox="0 0 864 360" xmlns="http://www.w3.org/2000/svg" version="1.1">
 <metadata>
  <rdf:RDF xmlns:dc="http://purl.org/dc/elements/1.1/" xmlns:cc="http://creativecommons.org/ns#" xmlns:rdf="http://www.w3.org/1999/02/22-rdf-syntax-ns#">
   <cc:Work>
    <dc:type rdf:resource="http://purl.org/dc/dcmitype/StillImage"/>
    <dc:date>2022-06-21T20:29:39.520058</dc:date>
    <dc:format>image/svg+xml</dc:format>
    <dc:creator>
     <cc:Agent>
      <dc:title>Matplotlib v3.5.2, https://matplotlib.org/</dc:title>
     </cc:Agent>
    </dc:creator>
   </cc:Work>
  </rdf:RDF>
 </metadata>
 <defs>
  <style type="text/css">*{stroke-linejoin: round; stroke-linecap: butt}</style>
 </defs>
 <g id="figure_1">
  <g id="patch_1">
   <path d="M 0 360 
L 864 360 
L 864 0 
L 0 0 
L 0 360 
z
" style="fill: none; opacity: 0"/>
  </g>
  <g id="axes_1">
   <g id="patch_2">
    <path d="M 108 320.4 
L 777.6 320.4 
L 777.6 43.2 
L 108 43.2 
L 108 320.4 
z
" style="fill: none; opacity: 0"/>
   </g>
   <g id="matplotlib.axis_1">
    <g id="xtick_1">
     <g id="line2d_1">
      <path d="M 209.943483 320.4 
L 209.943483 43.2 
" clip-path="url(#p8a47865d90)" style="fill: none; stroke-dasharray: 5.12,1.28,0.8,1.28; stroke-dashoffset: 0; stroke: #b0b0b0; stroke-width: 0.8"/>
     </g>
     <g id="line2d_2">
      <defs>
       <path id="m0d821ff852" d="M 0 0 
L 0 3.5 
" style="stroke: #a9a9a9; stroke-width: 0.8"/>
      </defs>
      <g>
       <use xlink:href="#m0d821ff852" x="209.943483" y="320.4" style="fill: #a9a9a9; stroke: #a9a9a9; stroke-width: 0.8"/>
      </g>
     </g>
     <g id="text_1">
      <!-- 2021-09 -->
      <g style="fill: #a9a9a9" transform="translate(189.052077 334.998438)scale(0.1 -0.1)">
       <defs>
        <path id="DejaVuSans-32" d="M 1228 531 
L 3431 531 
L 3431 0 
L 469 0 
L 469 531 
Q 828 903 1448 1529 
Q 2069 2156 2228 2338 
Q 2531 2678 2651 2914 
Q 2772 3150 2772 3378 
Q 2772 3750 2511 3984 
Q 2250 4219 1831 4219 
Q 1534 4219 1204 4116 
Q 875 4013 500 3803 
L 500 4441 
Q 881 4594 1212 4672 
Q 1544 4750 1819 4750 
Q 2544 4750 2975 4387 
Q 3406 4025 3406 3419 
Q 3406 3131 3298 2873 
Q 3191 2616 2906 2266 
Q 2828 2175 2409 1742 
Q 1991 1309 1228 531 
z
" transform="scale(0.015625)"/>
        <path id="DejaVuSans-30" d="M 2034 4250 
Q 1547 4250 1301 3770 
Q 1056 3291 1056 2328 
Q 1056 1369 1301 889 
Q 1547 409 2034 409 
Q 2525 409 2770 889 
Q 3016 1369 3016 2328 
Q 3016 3291 2770 3770 
Q 2525 4250 2034 4250 
z
M 2034 4750 
Q 2819 4750 3233 4129 
Q 3647 3509 3647 2328 
Q 3647 1150 3233 529 
Q 2819 -91 2034 -91 
Q 1250 -91 836 529 
Q 422 1150 422 2328 
Q 422 3509 836 4129 
Q 1250 4750 2034 4750 
z
" transform="scale(0.015625)"/>
        <path id="DejaVuSans-31" d="M 794 531 
L 1825 531 
L 1825 4091 
L 703 3866 
L 703 4441 
L 1819 4666 
L 2450 4666 
L 2450 531 
L 3481 531 
L 3481 0 
L 794 0 
L 794 531 
z
" transform="scale(0.015625)"/>
        <path id="DejaVuSans-2d" d="M 313 2009 
L 1997 2009 
L 1997 1497 
L 313 1497 
L 313 2009 
z
" transform="scale(0.015625)"/>
        <path id="DejaVuSans-39" d="M 703 97 
L 703 672 
Q 941 559 1184 500 
Q 1428 441 1663 441 
Q 2288 441 2617 861 
Q 2947 1281 2994 2138 
Q 2813 1869 2534 1725 
Q 2256 1581 1919 1581 
Q 1219 1581 811 2004 
Q 403 2428 403 3163 
Q 403 3881 828 4315 
Q 1253 4750 1959 4750 
Q 2769 4750 3195 4129 
Q 3622 3509 3622 2328 
Q 3622 1225 3098 567 
Q 2575 -91 1691 -91 
Q 1453 -91 1209 -44 
Q 966 3 703 97 
z
M 1959 2075 
Q 2384 2075 2632 2365 
Q 2881 2656 2881 3163 
Q 2881 3666 2632 3958 
Q 2384 4250 1959 4250 
Q 1534 4250 1286 3958 
Q 1038 3666 1038 3163 
Q 1038 2656 1286 2365 
Q 1534 2075 1959 2075 
z
" transform="scale(0.015625)"/>
       </defs>
       <use xlink:href="#DejaVuSans-32"/>
       <use xlink:href="#DejaVuSans-30" x="63.623047"/>
       <use xlink:href="#DejaVuSans-32" x="127.246094"/>
       <use xlink:href="#DejaVuSans-31" x="190.869141"/>
       <use xlink:href="#DejaVuSans-2d" x="254.492188"/>
       <use xlink:href="#DejaVuSans-30" x="290.576172"/>
       <use xlink:href="#DejaVuSans-39" x="354.199219"/>
      </g>
     </g>
    </g>
    <g id="xtick_2">
     <g id="line2d_3">
      <path d="M 321.787952 320.4 
L 321.787952 43.2 
" clip-path="url(#p8a47865d90)" style="fill: none; stroke-dasharray: 5.12,1.28,0.8,1.28; stroke-dashoffset: 0; stroke: #b0b0b0; stroke-width: 0.8"/>
     </g>
     <g id="line2d_4">
      <g>
       <use xlink:href="#m0d821ff852" x="321.787952" y="320.4" style="fill: #a9a9a9; stroke: #a9a9a9; stroke-width: 0.8"/>
      </g>
     </g>
     <g id="text_2">
      <!-- 2021-11 -->
      <g style="fill: #a9a9a9" transform="translate(300.896546 334.998438)scale(0.1 -0.1)">
       <use xlink:href="#DejaVuSans-32"/>
       <use xlink:href="#DejaVuSans-30" x="63.623047"/>
       <use xlink:href="#DejaVuSans-32" x="127.246094"/>
       <use xlink:href="#DejaVuSans-31" x="190.869141"/>
       <use xlink:href="#DejaVuSans-2d" x="254.492188"/>
       <use xlink:href="#DejaVuSans-31" x="290.576172"/>
       <use xlink:href="#DejaVuSans-31" x="354.199219"/>
      </g>
     </g>
    </g>
    <g id="xtick_3">
     <g id="line2d_5">
      <path d="M 433.632421 320.4 
L 433.632421 43.2 
" clip-path="url(#p8a47865d90)" style="fill: none; stroke-dasharray: 5.12,1.28,0.8,1.28; stroke-dashoffset: 0; stroke: #b0b0b0; stroke-width: 0.8"/>
     </g>
     <g id="line2d_6">
      <g>
       <use xlink:href="#m0d821ff852" x="433.632421" y="320.4" style="fill: #a9a9a9; stroke: #a9a9a9; stroke-width: 0.8"/>
      </g>
     </g>
     <g id="text_3">
      <!-- 2022-01 -->
      <g style="fill: #a9a9a9" transform="translate(412.741014 334.998438)scale(0.1 -0.1)">
       <use xlink:href="#DejaVuSans-32"/>
       <use xlink:href="#DejaVuSans-30" x="63.623047"/>
       <use xlink:href="#DejaVuSans-32" x="127.246094"/>
       <use xlink:href="#DejaVuSans-32" x="190.869141"/>
       <use xlink:href="#DejaVuSans-2d" x="254.492188"/>
       <use xlink:href="#DejaVuSans-30" x="290.576172"/>
       <use xlink:href="#DejaVuSans-31" x="354.199219"/>
      </g>
     </g>
    </g>
    <g id="xtick_4">
     <g id="line2d_7">
      <path d="M 541.809858 320.4 
L 541.809858 43.2 
" clip-path="url(#p8a47865d90)" style="fill: none; stroke-dasharray: 5.12,1.28,0.8,1.28; stroke-dashoffset: 0; stroke: #b0b0b0; stroke-width: 0.8"/>
     </g>
     <g id="line2d_8">
      <g>
       <use xlink:href="#m0d821ff852" x="541.809858" y="320.4" style="fill: #a9a9a9; stroke: #a9a9a9; stroke-width: 0.8"/>
      </g>
     </g>
     <g id="text_4">
      <!-- 2022-03 -->
      <g style="fill: #a9a9a9" transform="translate(520.918451 334.998438)scale(0.1 -0.1)">
       <defs>
        <path id="DejaVuSans-33" d="M 2597 2516 
Q 3050 2419 3304 2112 
Q 3559 1806 3559 1356 
Q 3559 666 3084 287 
Q 2609 -91 1734 -91 
Q 1441 -91 1130 -33 
Q 819 25 488 141 
L 488 750 
Q 750 597 1062 519 
Q 1375 441 1716 441 
Q 2309 441 2620 675 
Q 2931 909 2931 1356 
Q 2931 1769 2642 2001 
Q 2353 2234 1838 2234 
L 1294 2234 
L 1294 2753 
L 1863 2753 
Q 2328 2753 2575 2939 
Q 2822 3125 2822 3475 
Q 2822 3834 2567 4026 
Q 2313 4219 1838 4219 
Q 1578 4219 1281 4162 
Q 984 4106 628 3988 
L 628 4550 
Q 988 4650 1302 4700 
Q 1616 4750 1894 4750 
Q 2613 4750 3031 4423 
Q 3450 4097 3450 3541 
Q 3450 3153 3228 2886 
Q 3006 2619 2597 2516 
z
" transform="scale(0.015625)"/>
       </defs>
       <use xlink:href="#DejaVuSans-32"/>
       <use xlink:href="#DejaVuSans-30" x="63.623047"/>
       <use xlink:href="#DejaVuSans-32" x="127.246094"/>
       <use xlink:href="#DejaVuSans-32" x="190.869141"/>
       <use xlink:href="#DejaVuSans-2d" x="254.492188"/>
       <use xlink:href="#DejaVuSans-30" x="290.576172"/>
       <use xlink:href="#DejaVuSans-33" x="354.199219"/>
      </g>
     </g>
    </g>
    <g id="xtick_5">
     <g id="line2d_9">
      <path d="M 653.654326 320.4 
L 653.654326 43.2 
" clip-path="url(#p8a47865d90)" style="fill: none; stroke-dasharray: 5.12,1.28,0.8,1.28; stroke-dashoffset: 0; stroke: #b0b0b0; stroke-width: 0.8"/>
     </g>
     <g id="line2d_10">
      <g>
       <use xlink:href="#m0d821ff852" x="653.654326" y="320.4" style="fill: #a9a9a9; stroke: #a9a9a9; stroke-width: 0.8"/>
      </g>
     </g>
     <g id="text_5">
      <!-- 2022-05 -->
      <g style="fill: #a9a9a9" transform="translate(632.76292 334.998438)scale(0.1 -0.1)">
       <defs>
        <path id="DejaVuSans-35" d="M 691 4666 
L 3169 4666 
L 3169 4134 
L 1269 4134 
L 1269 2991 
Q 1406 3038 1543 3061 
Q 1681 3084 1819 3084 
Q 2600 3084 3056 2656 
Q 3513 2228 3513 1497 
Q 3513 744 3044 326 
Q 2575 -91 1722 -91 
Q 1428 -91 1123 -41 
Q 819 9 494 109 
L 494 744 
Q 775 591 1075 516 
Q 1375 441 1709 441 
Q 2250 441 2565 725 
Q 2881 1009 2881 1497 
Q 2881 1984 2565 2268 
Q 2250 2553 1709 2553 
Q 1456 2553 1204 2497 
Q 953 2441 691 2322 
L 691 4666 
z
" transform="scale(0.015625)"/>
       </defs>
       <use xlink:href="#DejaVuSans-32"/>
       <use xlink:href="#DejaVuSans-30" x="63.623047"/>
       <use xlink:href="#DejaVuSans-32" x="127.246094"/>
       <use xlink:href="#DejaVuSans-32" x="190.869141"/>
       <use xlink:href="#DejaVuSans-2d" x="254.492188"/>
       <use xlink:href="#DejaVuSans-30" x="290.576172"/>
       <use xlink:href="#DejaVuSans-35" x="354.199219"/>
      </g>
     </g>
    </g>
    <g id="xtick_6">
     <g id="line2d_11">
      <path d="M 765.498795 320.4 
L 765.498795 43.2 
" clip-path="url(#p8a47865d90)" style="fill: none; stroke-dasharray: 5.12,1.28,0.8,1.28; stroke-dashoffset: 0; stroke: #b0b0b0; stroke-width: 0.8"/>
     </g>
     <g id="line2d_12">
      <g>
       <use xlink:href="#m0d821ff852" x="765.498795" y="320.4" style="fill: #a9a9a9; stroke: #a9a9a9; stroke-width: 0.8"/>
      </g>
     </g>
     <g id="text_6">
      <!-- 2022-07 -->
      <g style="fill: #a9a9a9" transform="translate(744.607389 334.998438)scale(0.1 -0.1)">
       <defs>
        <path id="DejaVuSans-37" d="M 525 4666 
L 3525 4666 
L 3525 4397 
L 1831 0 
L 1172 0 
L 2766 4134 
L 525 4134 
L 525 4666 
z
" transform="scale(0.015625)"/>
       </defs>
       <use xlink:href="#DejaVuSans-32"/>
       <use xlink:href="#DejaVuSans-30" x="63.623047"/>
       <use xlink:href="#DejaVuSans-32" x="127.246094"/>
       <use xlink:href="#DejaVuSans-32" x="190.869141"/>
       <use xlink:href="#DejaVuSans-2d" x="254.492188"/>
       <use xlink:href="#DejaVuSans-30" x="290.576172"/>
       <use xlink:href="#DejaVuSans-37" x="354.199219"/>
      </g>
     </g>
    </g>
   </g>
   <g id="matplotlib.axis_2">
    <g id="ytick_1">
     <g id="line2d_13">
      <path d="M 108 307.917373 
L 777.6 307.917373 
" clip-path="url(#p8a47865d90)" style="fill: none; stroke-dasharray: 5.12,1.28,0.8,1.28; stroke-dashoffset: 0; stroke: #b0b0b0; stroke-width: 0.8"/>
     </g>
     <g id="line2d_14">
      <defs>
       <path id="m4f205df3fb" d="M 0 0 
L -3.5 0 
" style="stroke: #a9a9a9; stroke-width: 0.8"/>
      </defs>
      <g>
       <use xlink:href="#m4f205df3fb" x="108" y="307.917373" style="fill: #a9a9a9; stroke: #a9a9a9; stroke-width: 0.8"/>
      </g>
     </g>
     <g id="text_7">
      <!-- 0 -->
      <g style="fill: #a9a9a9" transform="translate(94.6375 311.716592)scale(0.1 -0.1)">
       <use xlink:href="#DejaVuSans-30"/>
      </g>
     </g>
    </g>
    <g id="ytick_2">
     <g id="line2d_15">
      <path d="M 108 278.574103 
L 777.6 278.574103 
" clip-path="url(#p8a47865d90)" style="fill: none; stroke-dasharray: 5.12,1.28,0.8,1.28; stroke-dashoffset: 0; stroke: #b0b0b0; stroke-width: 0.8"/>
     </g>
     <g id="line2d_16">
      <g>
       <use xlink:href="#m4f205df3fb" x="108" y="278.574103" style="fill: #a9a9a9; stroke: #a9a9a9; stroke-width: 0.8"/>
      </g>
     </g>
     <g id="text_8">
      <!-- 250 -->
      <g style="fill: #a9a9a9" transform="translate(81.9125 282.373322)scale(0.1 -0.1)">
       <use xlink:href="#DejaVuSans-32"/>
       <use xlink:href="#DejaVuSans-35" x="63.623047"/>
       <use xlink:href="#DejaVuSans-30" x="127.246094"/>
      </g>
     </g>
    </g>
    <g id="ytick_3">
     <g id="line2d_17">
      <path d="M 108 249.230834 
L 777.6 249.230834 
" clip-path="url(#p8a47865d90)" style="fill: none; stroke-dasharray: 5.12,1.28,0.8,1.28; stroke-dashoffset: 0; stroke: #b0b0b0; stroke-width: 0.8"/>
     </g>
     <g id="line2d_18">
      <g>
       <use xlink:href="#m4f205df3fb" x="108" y="249.230834" style="fill: #a9a9a9; stroke: #a9a9a9; stroke-width: 0.8"/>
      </g>
     </g>
     <g id="text_9">
      <!-- 500 -->
      <g style="fill: #a9a9a9" transform="translate(81.9125 253.030052)scale(0.1 -0.1)">
       <use xlink:href="#DejaVuSans-35"/>
       <use xlink:href="#DejaVuSans-30" x="63.623047"/>
       <use xlink:href="#DejaVuSans-30" x="127.246094"/>
      </g>
     </g>
    </g>
    <g id="ytick_4">
     <g id="line2d_19">
      <path d="M 108 219.887564 
L 777.6 219.887564 
" clip-path="url(#p8a47865d90)" style="fill: none; stroke-dasharray: 5.12,1.28,0.8,1.28; stroke-dashoffset: 0; stroke: #b0b0b0; stroke-width: 0.8"/>
     </g>
     <g id="line2d_20">
      <g>
       <use xlink:href="#m4f205df3fb" x="108" y="219.887564" style="fill: #a9a9a9; stroke: #a9a9a9; stroke-width: 0.8"/>
      </g>
     </g>
     <g id="text_10">
      <!-- 750 -->
      <g style="fill: #a9a9a9" transform="translate(81.9125 223.686783)scale(0.1 -0.1)">
       <use xlink:href="#DejaVuSans-37"/>
       <use xlink:href="#DejaVuSans-35" x="63.623047"/>
       <use xlink:href="#DejaVuSans-30" x="127.246094"/>
      </g>
     </g>
    </g>
    <g id="ytick_5">
     <g id="line2d_21">
      <path d="M 108 190.544294 
L 777.6 190.544294 
" clip-path="url(#p8a47865d90)" style="fill: none; stroke-dasharray: 5.12,1.28,0.8,1.28; stroke-dashoffset: 0; stroke: #b0b0b0; stroke-width: 0.8"/>
     </g>
     <g id="line2d_22">
      <g>
       <use xlink:href="#m4f205df3fb" x="108" y="190.544294" style="fill: #a9a9a9; stroke: #a9a9a9; stroke-width: 0.8"/>
      </g>
     </g>
     <g id="text_11">
      <!-- 1000 -->
      <g style="fill: #a9a9a9" transform="translate(75.55 194.343513)scale(0.1 -0.1)">
       <use xlink:href="#DejaVuSans-31"/>
       <use xlink:href="#DejaVuSans-30" x="63.623047"/>
       <use xlink:href="#DejaVuSans-30" x="127.246094"/>
       <use xlink:href="#DejaVuSans-30" x="190.869141"/>
      </g>
     </g>
    </g>
    <g id="ytick_6">
     <g id="line2d_23">
      <path d="M 108 161.201025 
L 777.6 161.201025 
" clip-path="url(#p8a47865d90)" style="fill: none; stroke-dasharray: 5.12,1.28,0.8,1.28; stroke-dashoffset: 0; stroke: #b0b0b0; stroke-width: 0.8"/>
     </g>
     <g id="line2d_24">
      <g>
       <use xlink:href="#m4f205df3fb" x="108" y="161.201025" style="fill: #a9a9a9; stroke: #a9a9a9; stroke-width: 0.8"/>
      </g>
     </g>
     <g id="text_12">
      <!-- 1250 -->
      <g style="fill: #a9a9a9" transform="translate(75.55 165.000243)scale(0.1 -0.1)">
       <use xlink:href="#DejaVuSans-31"/>
       <use xlink:href="#DejaVuSans-32" x="63.623047"/>
       <use xlink:href="#DejaVuSans-35" x="127.246094"/>
       <use xlink:href="#DejaVuSans-30" x="190.869141"/>
      </g>
     </g>
    </g>
    <g id="ytick_7">
     <g id="line2d_25">
      <path d="M 108 131.857755 
L 777.6 131.857755 
" clip-path="url(#p8a47865d90)" style="fill: none; stroke-dasharray: 5.12,1.28,0.8,1.28; stroke-dashoffset: 0; stroke: #b0b0b0; stroke-width: 0.8"/>
     </g>
     <g id="line2d_26">
      <g>
       <use xlink:href="#m4f205df3fb" x="108" y="131.857755" style="fill: #a9a9a9; stroke: #a9a9a9; stroke-width: 0.8"/>
      </g>
     </g>
     <g id="text_13">
      <!-- 1500 -->
      <g style="fill: #a9a9a9" transform="translate(75.55 135.656974)scale(0.1 -0.1)">
       <use xlink:href="#DejaVuSans-31"/>
       <use xlink:href="#DejaVuSans-35" x="63.623047"/>
       <use xlink:href="#DejaVuSans-30" x="127.246094"/>
       <use xlink:href="#DejaVuSans-30" x="190.869141"/>
      </g>
     </g>
    </g>
    <g id="ytick_8">
     <g id="line2d_27">
      <path d="M 108 102.514485 
L 777.6 102.514485 
" clip-path="url(#p8a47865d90)" style="fill: none; stroke-dasharray: 5.12,1.28,0.8,1.28; stroke-dashoffset: 0; stroke: #b0b0b0; stroke-width: 0.8"/>
     </g>
     <g id="line2d_28">
      <g>
       <use xlink:href="#m4f205df3fb" x="108" y="102.514485" style="fill: #a9a9a9; stroke: #a9a9a9; stroke-width: 0.8"/>
      </g>
     </g>
     <g id="text_14">
      <!-- 1750 -->
      <g style="fill: #a9a9a9" transform="translate(75.55 106.313704)scale(0.1 -0.1)">
       <use xlink:href="#DejaVuSans-31"/>
       <use xlink:href="#DejaVuSans-37" x="63.623047"/>
       <use xlink:href="#DejaVuSans-35" x="127.246094"/>
       <use xlink:href="#DejaVuSans-30" x="190.869141"/>
      </g>
     </g>
    </g>
    <g id="ytick_9">
     <g id="line2d_29">
      <path d="M 108 73.171216 
L 777.6 73.171216 
" clip-path="url(#p8a47865d90)" style="fill: none; stroke-dasharray: 5.12,1.28,0.8,1.28; stroke-dashoffset: 0; stroke: #b0b0b0; stroke-width: 0.8"/>
     </g>
     <g id="line2d_30">
      <g>
       <use xlink:href="#m4f205df3fb" x="108" y="73.171216" style="fill: #a9a9a9; stroke: #a9a9a9; stroke-width: 0.8"/>
      </g>
     </g>
     <g id="text_15">
      <!-- 2000 -->
      <g style="fill: #a9a9a9" transform="translate(75.55 76.970434)scale(0.1 -0.1)">
       <use xlink:href="#DejaVuSans-32"/>
       <use xlink:href="#DejaVuSans-30" x="63.623047"/>
       <use xlink:href="#DejaVuSans-30" x="127.246094"/>
       <use xlink:href="#DejaVuSans-30" x="190.869141"/>
      </g>
     </g>
    </g>
    <g id="ytick_10">
     <g id="line2d_31">
      <path d="M 108 43.827946 
L 777.6 43.827946 
" clip-path="url(#p8a47865d90)" style="fill: none; stroke-dasharray: 5.12,1.28,0.8,1.28; stroke-dashoffset: 0; stroke: #b0b0b0; stroke-width: 0.8"/>
     </g>
     <g id="line2d_32">
      <g>
       <use xlink:href="#m4f205df3fb" x="108" y="43.827946" style="fill: #a9a9a9; stroke: #a9a9a9; stroke-width: 0.8"/>
      </g>
     </g>
     <g id="text_16">
      <!-- 2250 -->
      <g style="fill: #a9a9a9" transform="translate(75.55 47.627165)scale(0.1 -0.1)">
       <use xlink:href="#DejaVuSans-32"/>
       <use xlink:href="#DejaVuSans-32" x="63.623047"/>
       <use xlink:href="#DejaVuSans-35" x="127.246094"/>
       <use xlink:href="#DejaVuSans-30" x="190.869141"/>
      </g>
     </g>
    </g>
   </g>
   <g id="line2d_33">
    <path d="M 138.436364 307.447881 
L 142.103395 307.213135 
L 147.603943 306.508896 
L 149.437459 306.508896 
L 151.270975 305.804658 
L 154.938007 305.569912 
L 158.605038 304.865673 
L 160.438554 304.630927 
L 162.27207 304.161435 
L 164.105586 303.926688 
L 165.939102 303.457196 
L 167.772618 303.105077 
L 169.606134 302.987704 
L 171.43965 302.752958 
L 173.273165 302.400838 
L 178.773713 302.048719 
L 180.607229 301.109735 
L 182.440745 300.640242 
L 184.274261 298.527527 
L 186.107777 297.353796 
L 187.941292 293.128365 
L 189.774808 292.893619 
L 191.608324 291.485142 
L 193.44184 290.780904 
L 195.275356 289.724546 
L 200.775904 285.381742 
L 202.609419 284.442757 
L 206.276451 282.916907 
L 208.109967 281.625803 
L 209.943483 280.921565 
L 213.610515 278.691476 
L 215.444031 277.987238 
L 217.277547 275.052911 
L 219.111062 273.644434 
L 220.944578 272.588076 
L 222.778094 271.766465 
L 228.278642 271.062226 
L 231.945674 270.357988 
L 233.779189 270.123242 
L 235.612705 269.771122 
L 239.279737 269.536376 
L 241.113253 269.066884 
L 242.946769 268.127899 
L 246.613801 267.893153 
L 248.447317 267.893153 
L 250.280832 267.541034 
L 253.947864 267.071542 
L 255.78138 266.954169 
L 257.614896 266.24993 
L 259.448412 265.897811 
L 261.281928 265.428319 
L 263.115444 265.076199 
L 264.948959 264.841453 
L 266.782475 264.489334 
L 268.615991 264.371961 
L 270.449507 264.137215 
L 272.283023 263.667722 
L 274.116539 263.432976 
L 275.950055 263.315603 
L 277.783571 262.963484 
L 279.617087 262.024499 
L 281.450602 261.789753 
L 285.117634 260.498649 
L 286.95115 260.263903 
L 288.784666 260.14653 
L 290.618182 259.559665 
L 292.451698 259.207545 
L 294.285214 259.090172 
L 296.118729 258.62068 
L 297.952245 258.385934 
L 301.619277 257.212203 
L 303.452793 256.977457 
L 305.286309 256.977457 
L 307.119825 256.742711 
L 308.953341 256.625338 
L 310.786857 256.390592 
L 312.620372 255.803726 
L 314.453888 255.686353 
L 316.287404 255.099488 
L 319.954436 254.160503 
L 321.787952 253.925757 
L 325.454984 253.691011 
L 327.288499 253.338891 
L 329.122015 253.104145 
L 330.955531 252.634653 
L 332.789047 251.930415 
L 334.622563 249.582953 
L 336.456079 248.878714 
L 338.289595 247.93973 
L 340.123111 247.704984 
L 341.956627 247.235491 
L 343.790142 247.000745 
L 347.457174 245.474895 
L 349.29069 245.357522 
L 352.957722 244.418537 
L 354.791238 243.831672 
L 358.458269 242.892687 
L 360.291785 242.892687 
L 363.958817 242.423195 
L 365.792333 241.718957 
L 367.625849 241.249464 
L 371.292881 240.075734 
L 373.126396 239.723614 
L 374.959912 239.606241 
L 378.626944 238.080391 
L 380.46046 237.845645 
L 382.293976 237.024034 
L 384.127492 236.789287 
L 387.794524 236.554541 
L 389.628039 236.202422 
L 391.461555 235.73293 
L 393.295071 235.615557 
L 395.128587 235.38081 
L 398.795619 234.676572 
L 400.629135 234.441826 
L 402.462651 233.972333 
L 404.296166 233.385468 
L 406.129682 233.150722 
L 407.963198 232.32911 
L 409.796714 231.742245 
L 411.63023 230.685887 
L 413.463746 230.216395 
L 415.297262 229.981649 
L 418.964294 228.807918 
L 422.631325 226.812576 
L 424.464841 225.521472 
L 426.298357 225.286726 
L 428.131873 224.69986 
L 429.965389 224.465114 
L 431.798905 223.995622 
L 433.632421 223.760876 
L 435.465936 222.939264 
L 439.132968 222.235026 
L 442.8 220.474429 
L 444.633516 220.004937 
L 446.467032 219.770191 
L 448.300548 219.065952 
L 450.134064 218.713833 
L 451.967579 218.244341 
L 453.801095 217.892222 
L 455.634611 217.657476 
L 459.301643 216.014252 
L 461.135159 215.662133 
L 462.968675 214.840522 
L 464.802191 214.605776 
L 466.635706 213.784164 
L 468.469222 213.314672 
L 470.302738 213.079925 
L 472.136254 212.962552 
L 473.96977 212.375687 
L 475.803286 211.671449 
L 477.636802 211.436702 
L 479.470318 211.436702 
L 481.303834 210.615091 
L 483.137349 210.262972 
L 484.970865 210.028225 
L 486.804381 209.323987 
L 488.637897 209.323987 
L 490.471413 209.206614 
L 492.304929 208.971868 
L 494.138445 208.854495 
L 495.971961 208.619748 
L 497.805476 208.267629 
L 501.472508 206.507033 
L 505.13954 204.86381 
L 506.973056 204.394318 
L 508.806572 203.220587 
L 510.640088 202.633721 
L 514.307119 200.990498 
L 516.140635 200.638379 
L 517.974151 199.816768 
L 519.807667 199.229902 
L 521.641183 197.938798 
L 523.474699 196.999814 
L 525.308215 195.121844 
L 527.141731 191.952771 
L 528.975246 189.370564 
L 530.808762 188.783698 
L 532.642278 188.666325 
L 536.30931 185.966744 
L 538.142826 185.497252 
L 539.976342 184.440894 
L 541.809858 184.088775 
L 543.643373 182.445552 
L 545.476889 181.97606 
L 550.977437 179.511225 
L 552.810953 177.39851 
L 554.644469 174.464183 
L 556.477985 173.407825 
L 558.311501 170.473498 
L 560.145016 168.712902 
L 561.978532 167.773917 
L 563.812048 167.187052 
L 565.645564 165.895948 
L 569.312596 164.135352 
L 571.146112 162.844248 
L 572.979628 161.318398 
L 576.646659 158.853563 
L 578.480175 156.153982 
L 580.313691 151.811178 
L 582.147207 149.111598 
L 583.980723 147.585748 
L 585.814239 146.646763 
L 589.481271 143.125571 
L 593.148302 140.191244 
L 596.815334 137.256917 
L 598.64885 135.613694 
L 600.482366 133.031486 
L 602.315882 131.27089 
L 604.149398 129.862413 
L 607.816429 127.397578 
L 613.316977 123.172147 
L 615.150493 122.702655 
L 620.651041 119.768328 
L 624.318072 117.772986 
L 626.151588 116.951374 
L 629.81862 113.782301 
L 631.652136 111.434839 
L 635.319168 108.970005 
L 637.152683 108.500512 
L 638.986199 107.561528 
L 640.819715 106.270424 
L 644.486747 104.392455 
L 646.320263 104.040335 
L 651.820811 100.636516 
L 653.654326 98.87592 
L 655.487842 97.584816 
L 657.321358 96.997951 
L 659.154874 95.706847 
L 660.98839 94.885235 
L 662.821906 93.594131 
L 664.655422 92.77252 
L 666.488938 91.598789 
L 668.322453 90.072939 
L 670.155969 89.486074 
L 671.989485 88.781835 
L 673.823001 87.84285 
L 675.656517 87.255985 
L 677.490033 86.082254 
L 679.323549 85.612762 
L 693.991676 79.978854 
L 697.658708 79.274616 
L 699.492223 77.51402 
L 701.325739 76.105543 
L 703.159255 75.401304 
L 710.493319 71.175873 
L 712.326835 70.354262 
L 714.16035 69.767396 
L 715.993866 68.358919 
L 717.827382 67.654681 
L 723.32793 64.250862 
L 725.161446 63.898742 
L 726.994962 63.42925 
L 728.828478 63.077131 
L 730.661993 62.490265 
L 732.495509 62.020773 
L 737.996057 58.969073 
L 739.829573 58.734327 
L 741.663089 58.030088 
L 743.496605 57.677969 
L 745.33012 56.856358 
L 747.163636 55.8 
L 747.163636 55.8 
" clip-path="url(#p8a47865d90)" style="fill: none; stroke: #1f77b4; stroke-width: 1.5; stroke-linecap: square"/>
   </g>
   <g id="line2d_34">
    <path d="M 140.26988 307.8 
L 143.936911 307.8 
L 147.603943 307.330508 
L 156.771522 307.330508 
L 160.438554 307.095762 
L 162.27207 307.095762 
L 164.105586 306.978388 
L 167.772618 306.978388 
L 171.43965 306.743642 
L 178.773713 306.743642 
L 180.607229 306.27415 
L 182.440745 306.27415 
L 184.274261 306.039404 
L 186.107777 306.039404 
L 187.941292 305.804658 
L 189.774808 305.687285 
L 195.275356 304.983046 
L 200.775904 304.630927 
L 202.609419 304.630927 
L 206.276451 304.396181 
L 208.109967 304.161435 
L 211.776999 304.161435 
L 213.610515 303.809315 
L 215.444031 303.809315 
L 217.277547 303.691942 
L 219.111062 303.691942 
L 222.778094 303.22245 
L 230.112158 303.22245 
L 231.945674 302.987704 
L 239.279737 302.987704 
L 242.946769 302.752958 
L 244.780285 302.752958 
L 246.613801 302.635585 
L 257.614896 302.635585 
L 259.448412 302.518211 
L 263.115444 302.518211 
L 264.948959 302.400838 
L 270.449507 302.400838 
L 272.283023 302.283465 
L 274.116539 302.283465 
L 275.950055 302.166092 
L 277.783571 302.166092 
L 279.617087 302.048719 
L 286.95115 302.048719 
L 288.784666 301.813973 
L 290.618182 301.813973 
L 292.451698 301.6966 
L 294.285214 301.6966 
L 297.952245 301.461854 
L 299.785761 301.461854 
L 301.619277 301.344481 
L 308.953341 301.344481 
L 310.786857 301.227108 
L 314.453888 301.227108 
L 316.287404 301.109735 
L 321.787952 301.109735 
L 323.621468 300.992361 
L 325.454984 300.992361 
L 327.288499 300.757615 
L 329.122015 300.640242 
L 330.955531 300.288123 
L 332.789047 300.288123 
L 334.622563 300.17075 
L 340.123111 300.17075 
L 341.956627 300.053377 
L 343.790142 299.818631 
L 347.457174 299.818631 
L 349.29069 299.701258 
L 351.124206 299.701258 
L 352.957722 299.583884 
L 358.458269 299.583884 
L 362.125301 299.349138 
L 365.792333 299.349138 
L 367.625849 299.231765 
L 369.459365 298.997019 
L 371.292881 298.879646 
L 373.126396 298.6449 
L 374.959912 298.527527 
L 376.793428 298.527527 
L 378.626944 298.410154 
L 380.46046 298.410154 
L 382.293976 298.292781 
L 384.127492 298.292781 
L 385.961008 298.175408 
L 391.461555 298.175408 
L 393.295071 297.940661 
L 398.795619 297.940661 
L 400.629135 297.705915 
L 402.462651 297.588542 
L 404.296166 297.353796 
L 406.129682 297.353796 
L 407.963198 297.236423 
L 409.796714 297.236423 
L 411.63023 297.11905 
L 417.130778 297.11905 
L 418.964294 296.884304 
L 420.797809 296.532184 
L 426.298357 296.180065 
L 428.131873 295.827946 
L 429.965389 295.827946 
L 431.798905 295.710573 
L 435.465936 295.710573 
L 437.299452 295.5932 
L 439.132968 295.358454 
L 440.966484 295.241081 
L 442.8 295.006334 
L 448.300548 294.654215 
L 450.134064 294.654215 
L 453.801095 294.419469 
L 457.468127 294.419469 
L 462.968675 294.06735 
L 466.635706 294.06735 
L 468.469222 293.832604 
L 472.136254 293.597857 
L 475.803286 293.597857 
L 477.636802 293.363111 
L 479.470318 293.363111 
L 483.137349 293.128365 
L 484.970865 292.893619 
L 488.637897 292.893619 
L 490.471413 292.776246 
L 492.304929 292.776246 
L 497.805476 292.424127 
L 503.306024 292.424127 
L 506.973056 292.189381 
L 514.307119 292.189381 
L 516.140635 292.072007 
L 517.974151 292.072007 
L 519.807667 291.837261 
L 521.641183 291.485142 
L 525.308215 291.250396 
L 527.141731 291.250396 
L 528.975246 291.01565 
L 530.808762 290.898277 
L 532.642278 290.898277 
L 536.30931 290.663531 
L 538.142826 290.663531 
L 539.976342 290.311411 
L 541.809858 290.194038 
L 543.643373 289.959292 
L 545.476889 289.4898 
L 549.143921 289.255054 
L 550.977437 288.785561 
L 552.810953 288.668188 
L 554.644469 288.433442 
L 556.477985 288.316069 
L 558.311501 287.846577 
L 560.145016 287.494457 
L 561.978532 287.377084 
L 563.812048 287.377084 
L 565.645564 287.259711 
L 567.47908 287.259711 
L 569.312596 287.024965 
L 571.146112 287.024965 
L 572.979628 286.790219 
L 576.646659 286.08598 
L 578.480175 285.616488 
L 582.147207 285.146996 
L 583.980723 285.146996 
L 587.647755 284.677503 
L 589.481271 284.677503 
L 594.981818 284.325384 
L 598.64885 283.855892 
L 602.315882 283.621146 
L 604.149398 283.621146 
L 605.982913 283.503773 
L 607.816429 283.269027 
L 609.649945 283.151653 
L 613.316977 283.151653 
L 615.150493 282.916907 
L 616.984009 282.564788 
L 618.817525 282.447415 
L 620.651041 282.212669 
L 622.484556 282.212669 
L 624.318072 281.86055 
L 626.151588 281.625803 
L 627.985104 281.273684 
L 631.652136 281.038938 
L 637.152683 281.038938 
L 638.986199 280.569446 
L 640.819715 280.3347 
L 642.653231 280.3347 
L 646.320263 280.099953 
L 648.153779 280.099953 
L 649.987295 279.747834 
L 651.820811 279.630461 
L 653.654326 279.630461 
L 657.321358 279.160969 
L 659.154874 278.80885 
L 660.98839 278.339357 
L 662.821906 278.104611 
L 664.655422 278.104611 
L 668.322453 277.869865 
L 670.155969 277.635119 
L 671.989485 277.635119 
L 675.656517 277.400373 
L 679.323549 277.400373 
L 682.990581 277.165626 
L 684.824096 277.165626 
L 688.491128 276.696134 
L 690.324644 276.578761 
L 692.15816 276.578761 
L 695.825192 276.344015 
L 697.658708 276.109269 
L 703.159255 275.75715 
L 708.659803 275.75715 
L 710.493319 275.522403 
L 712.326835 275.40503 
L 715.993866 275.40503 
L 717.827382 275.052911 
L 719.660898 274.935538 
L 721.494414 274.700792 
L 723.32793 274.583419 
L 725.161446 274.583419 
L 726.994962 274.348673 
L 730.661993 274.348673 
L 732.495509 274.231299 
L 734.329025 273.87918 
L 737.996057 273.87918 
L 739.829573 273.644434 
L 741.663089 273.644434 
L 747.163636 273.292315 
L 747.163636 273.292315 
" clip-path="url(#p8a47865d90)" style="fill: none; stroke: #ff7f0e; stroke-width: 1.5; stroke-linecap: square"/>
   </g>
   <g id="patch_3">
    <path d="M 108 320.4 
L 108 43.2 
" style="fill: none; stroke: #a9a9a9; stroke-width: 0.8; stroke-linejoin: miter; stroke-linecap: square"/>
   </g>
   <g id="patch_4">
    <path d="M 777.6 320.4 
L 777.6 43.2 
" style="fill: none"/>
   </g>
   <g id="patch_5">
    <path d="M 108 320.4 
L 777.6 320.4 
" style="fill: none; stroke: #a9a9a9; stroke-width: 0.8; stroke-linejoin: miter; stroke-linecap: square"/>
   </g>
   <g id="patch_6">
    <path d="M 108 43.2 
L 777.6 43.2 
" style="fill: none"/>
   </g>
   <g id="text_17">
    <!-- get_subscribe history -->
    <g style="fill: #a9a9a9" transform="translate(378.6075 37.2)scale(0.12 -0.12)">
     <defs>
      <path id="DejaVuSans-67" d="M 2906 1791 
Q 2906 2416 2648 2759 
Q 2391 3103 1925 3103 
Q 1463 3103 1205 2759 
Q 947 2416 947 1791 
Q 947 1169 1205 825 
Q 1463 481 1925 481 
Q 2391 481 2648 825 
Q 2906 1169 2906 1791 
z
M 3481 434 
Q 3481 -459 3084 -895 
Q 2688 -1331 1869 -1331 
Q 1566 -1331 1297 -1286 
Q 1028 -1241 775 -1147 
L 775 -588 
Q 1028 -725 1275 -790 
Q 1522 -856 1778 -856 
Q 2344 -856 2625 -561 
Q 2906 -266 2906 331 
L 2906 616 
Q 2728 306 2450 153 
Q 2172 0 1784 0 
Q 1141 0 747 490 
Q 353 981 353 1791 
Q 353 2603 747 3093 
Q 1141 3584 1784 3584 
Q 2172 3584 2450 3431 
Q 2728 3278 2906 2969 
L 2906 3500 
L 3481 3500 
L 3481 434 
z
" transform="scale(0.015625)"/>
      <path id="DejaVuSans-65" d="M 3597 1894 
L 3597 1613 
L 953 1613 
Q 991 1019 1311 708 
Q 1631 397 2203 397 
Q 2534 397 2845 478 
Q 3156 559 3463 722 
L 3463 178 
Q 3153 47 2828 -22 
Q 2503 -91 2169 -91 
Q 1331 -91 842 396 
Q 353 884 353 1716 
Q 353 2575 817 3079 
Q 1281 3584 2069 3584 
Q 2775 3584 3186 3129 
Q 3597 2675 3597 1894 
z
M 3022 2063 
Q 3016 2534 2758 2815 
Q 2500 3097 2075 3097 
Q 1594 3097 1305 2825 
Q 1016 2553 972 2059 
L 3022 2063 
z
" transform="scale(0.015625)"/>
      <path id="DejaVuSans-74" d="M 1172 4494 
L 1172 3500 
L 2356 3500 
L 2356 3053 
L 1172 3053 
L 1172 1153 
Q 1172 725 1289 603 
Q 1406 481 1766 481 
L 2356 481 
L 2356 0 
L 1766 0 
Q 1100 0 847 248 
Q 594 497 594 1153 
L 594 3053 
L 172 3053 
L 172 3500 
L 594 3500 
L 594 4494 
L 1172 4494 
z
" transform="scale(0.015625)"/>
      <path id="DejaVuSans-5f" d="M 3263 -1063 
L 3263 -1509 
L -63 -1509 
L -63 -1063 
L 3263 -1063 
z
" transform="scale(0.015625)"/>
      <path id="DejaVuSans-73" d="M 2834 3397 
L 2834 2853 
Q 2591 2978 2328 3040 
Q 2066 3103 1784 3103 
Q 1356 3103 1142 2972 
Q 928 2841 928 2578 
Q 928 2378 1081 2264 
Q 1234 2150 1697 2047 
L 1894 2003 
Q 2506 1872 2764 1633 
Q 3022 1394 3022 966 
Q 3022 478 2636 193 
Q 2250 -91 1575 -91 
Q 1294 -91 989 -36 
Q 684 19 347 128 
L 347 722 
Q 666 556 975 473 
Q 1284 391 1588 391 
Q 1994 391 2212 530 
Q 2431 669 2431 922 
Q 2431 1156 2273 1281 
Q 2116 1406 1581 1522 
L 1381 1569 
Q 847 1681 609 1914 
Q 372 2147 372 2553 
Q 372 3047 722 3315 
Q 1072 3584 1716 3584 
Q 2034 3584 2315 3537 
Q 2597 3491 2834 3397 
z
" transform="scale(0.015625)"/>
      <path id="DejaVuSans-75" d="M 544 1381 
L 544 3500 
L 1119 3500 
L 1119 1403 
Q 1119 906 1312 657 
Q 1506 409 1894 409 
Q 2359 409 2629 706 
Q 2900 1003 2900 1516 
L 2900 3500 
L 3475 3500 
L 3475 0 
L 2900 0 
L 2900 538 
Q 2691 219 2414 64 
Q 2138 -91 1772 -91 
Q 1169 -91 856 284 
Q 544 659 544 1381 
z
M 1991 3584 
L 1991 3584 
z
" transform="scale(0.015625)"/>
      <path id="DejaVuSans-62" d="M 3116 1747 
Q 3116 2381 2855 2742 
Q 2594 3103 2138 3103 
Q 1681 3103 1420 2742 
Q 1159 2381 1159 1747 
Q 1159 1113 1420 752 
Q 1681 391 2138 391 
Q 2594 391 2855 752 
Q 3116 1113 3116 1747 
z
M 1159 2969 
Q 1341 3281 1617 3432 
Q 1894 3584 2278 3584 
Q 2916 3584 3314 3078 
Q 3713 2572 3713 1747 
Q 3713 922 3314 415 
Q 2916 -91 2278 -91 
Q 1894 -91 1617 61 
Q 1341 213 1159 525 
L 1159 0 
L 581 0 
L 581 4863 
L 1159 4863 
L 1159 2969 
z
" transform="scale(0.015625)"/>
      <path id="DejaVuSans-63" d="M 3122 3366 
L 3122 2828 
Q 2878 2963 2633 3030 
Q 2388 3097 2138 3097 
Q 1578 3097 1268 2742 
Q 959 2388 959 1747 
Q 959 1106 1268 751 
Q 1578 397 2138 397 
Q 2388 397 2633 464 
Q 2878 531 3122 666 
L 3122 134 
Q 2881 22 2623 -34 
Q 2366 -91 2075 -91 
Q 1284 -91 818 406 
Q 353 903 353 1747 
Q 353 2603 823 3093 
Q 1294 3584 2113 3584 
Q 2378 3584 2631 3529 
Q 2884 3475 3122 3366 
z
" transform="scale(0.015625)"/>
      <path id="DejaVuSans-72" d="M 2631 2963 
Q 2534 3019 2420 3045 
Q 2306 3072 2169 3072 
Q 1681 3072 1420 2755 
Q 1159 2438 1159 1844 
L 1159 0 
L 581 0 
L 581 3500 
L 1159 3500 
L 1159 2956 
Q 1341 3275 1631 3429 
Q 1922 3584 2338 3584 
Q 2397 3584 2469 3576 
Q 2541 3569 2628 3553 
L 2631 2963 
z
" transform="scale(0.015625)"/>
      <path id="DejaVuSans-69" d="M 603 3500 
L 1178 3500 
L 1178 0 
L 603 0 
L 603 3500 
z
M 603 4863 
L 1178 4863 
L 1178 4134 
L 603 4134 
L 603 4863 
z
" transform="scale(0.015625)"/>
      <path id="DejaVuSans-20" transform="scale(0.015625)"/>
      <path id="DejaVuSans-68" d="M 3513 2113 
L 3513 0 
L 2938 0 
L 2938 2094 
Q 2938 2591 2744 2837 
Q 2550 3084 2163 3084 
Q 1697 3084 1428 2787 
Q 1159 2491 1159 1978 
L 1159 0 
L 581 0 
L 581 4863 
L 1159 4863 
L 1159 2956 
Q 1366 3272 1645 3428 
Q 1925 3584 2291 3584 
Q 2894 3584 3203 3211 
Q 3513 2838 3513 2113 
z
" transform="scale(0.015625)"/>
      <path id="DejaVuSans-6f" d="M 1959 3097 
Q 1497 3097 1228 2736 
Q 959 2375 959 1747 
Q 959 1119 1226 758 
Q 1494 397 1959 397 
Q 2419 397 2687 759 
Q 2956 1122 2956 1747 
Q 2956 2369 2687 2733 
Q 2419 3097 1959 3097 
z
M 1959 3584 
Q 2709 3584 3137 3096 
Q 3566 2609 3566 1747 
Q 3566 888 3137 398 
Q 2709 -91 1959 -91 
Q 1206 -91 779 398 
Q 353 888 353 1747 
Q 353 2609 779 3096 
Q 1206 3584 1959 3584 
z
" transform="scale(0.015625)"/>
      <path id="DejaVuSans-79" d="M 2059 -325 
Q 1816 -950 1584 -1140 
Q 1353 -1331 966 -1331 
L 506 -1331 
L 506 -850 
L 844 -850 
Q 1081 -850 1212 -737 
Q 1344 -625 1503 -206 
L 1606 56 
L 191 3500 
L 800 3500 
L 1894 763 
L 2988 3500 
L 3597 3500 
L 2059 -325 
z
" transform="scale(0.015625)"/>
     </defs>
     <use xlink:href="#DejaVuSans-67"/>
     <use xlink:href="#DejaVuSans-65" x="63.476562"/>
     <use xlink:href="#DejaVuSans-74" x="125"/>
     <use xlink:href="#DejaVuSans-5f" x="164.208984"/>
     <use xlink:href="#DejaVuSans-73" x="214.208984"/>
     <use xlink:href="#DejaVuSans-75" x="266.308594"/>
     <use xlink:href="#DejaVuSans-62" x="329.6875"/>
     <use xlink:href="#DejaVuSans-73" x="393.164062"/>
     <use xlink:href="#DejaVuSans-63" x="445.263672"/>
     <use xlink:href="#DejaVuSans-72" x="500.244141"/>
     <use xlink:href="#DejaVuSans-69" x="541.357422"/>
     <use xlink:href="#DejaVuSans-62" x="569.140625"/>
     <use xlink:href="#DejaVuSans-65" x="632.617188"/>
     <use xlink:href="#DejaVuSans-20" x="694.140625"/>
     <use xlink:href="#DejaVuSans-68" x="725.927734"/>
     <use xlink:href="#DejaVuSans-69" x="789.306641"/>
     <use xlink:href="#DejaVuSans-73" x="817.089844"/>
     <use xlink:href="#DejaVuSans-74" x="869.189453"/>
     <use xlink:href="#DejaVuSans-6f" x="908.398438"/>
     <use xlink:href="#DejaVuSans-72" x="969.580078"/>
     <use xlink:href="#DejaVuSans-79" x="1010.693359"/>
    </g>
   </g>
   <g id="legend_1">
    <g id="line2d_35">
     <path d="M 815.08 328.498438 
L 825.08 328.498438 
L 835.08 328.498438 
" style="fill: none; stroke: #1f77b4; stroke-width: 1.5; stroke-linecap: square"/>
    </g>
    <g id="text_18">
     <!-- star -->
     <g style="fill: #a9a9a9" transform="translate(843.08 331.998438)scale(0.1 -0.1)">
      <defs>
       <path id="DejaVuSans-61" d="M 2194 1759 
Q 1497 1759 1228 1600 
Q 959 1441 959 1056 
Q 959 750 1161 570 
Q 1363 391 1709 391 
Q 2188 391 2477 730 
Q 2766 1069 2766 1631 
L 2766 1759 
L 2194 1759 
z
M 3341 1997 
L 3341 0 
L 2766 0 
L 2766 531 
Q 2569 213 2275 61 
Q 1981 -91 1556 -91 
Q 1019 -91 701 211 
Q 384 513 384 1019 
Q 384 1609 779 1909 
Q 1175 2209 1959 2209 
L 2766 2209 
L 2766 2266 
Q 2766 2663 2505 2880 
Q 2244 3097 1772 3097 
Q 1472 3097 1187 3025 
Q 903 2953 641 2809 
L 641 3341 
Q 956 3463 1253 3523 
Q 1550 3584 1831 3584 
Q 2591 3584 2966 3190 
Q 3341 2797 3341 1997 
z
" transform="scale(0.015625)"/>
      </defs>
      <use xlink:href="#DejaVuSans-73"/>
      <use xlink:href="#DejaVuSans-74" x="52.099609"/>
      <use xlink:href="#DejaVuSans-61" x="91.308594"/>
      <use xlink:href="#DejaVuSans-72" x="152.587891"/>
     </g>
    </g>
    <g id="line2d_36">
     <path d="M 815.08 343.176562 
L 825.08 343.176562 
L 835.08 343.176562 
" style="fill: none; stroke: #ff7f0e; stroke-width: 1.5; stroke-linecap: square"/>
    </g>
    <g id="text_19">
     <!-- fork -->
     <g style="fill: #a9a9a9" transform="translate(843.08 346.676562)scale(0.1 -0.1)">
      <defs>
       <path id="DejaVuSans-66" d="M 2375 4863 
L 2375 4384 
L 1825 4384 
Q 1516 4384 1395 4259 
Q 1275 4134 1275 3809 
L 1275 3500 
L 2222 3500 
L 2222 3053 
L 1275 3053 
L 1275 0 
L 697 0 
L 697 3053 
L 147 3053 
L 147 3500 
L 697 3500 
L 697 3744 
Q 697 4328 969 4595 
Q 1241 4863 1831 4863 
L 2375 4863 
z
" transform="scale(0.015625)"/>
       <path id="DejaVuSans-6b" d="M 581 4863 
L 1159 4863 
L 1159 1991 
L 2875 3500 
L 3609 3500 
L 1753 1863 
L 3688 0 
L 2938 0 
L 1159 1709 
L 1159 0 
L 581 0 
L 581 4863 
z
" transform="scale(0.015625)"/>
      </defs>
      <use xlink:href="#DejaVuSans-66"/>
      <use xlink:href="#DejaVuSans-6f" x="35.205078"/>
      <use xlink:href="#DejaVuSans-72" x="96.386719"/>
      <use xlink:href="#DejaVuSans-6b" x="137.5"/>
     </g>
    </g>
   </g>
  </g>
 </g>
 <defs>
  <clipPath id="p8a47865d90">
   <rect x="108" y="43.2" width="669.6" height="277.2"/>
  </clipPath>
 </defs>
</svg>
