<?xml version="1.0" encoding="utf-8" standalone="no"?>
<!DOCTYPE svg PUBLIC "-//W3C//DTD SVG 1.1//EN"
  "http://www.w3.org/Graphics/SVG/1.1/DTD/svg11.dtd">
<svg xmlns:xlink="http://www.w3.org/1999/xlink" width="864pt" height="360pt" viewBox="0 0 864 360" xmlns="http://www.w3.org/2000/svg" version="1.1">
 <metadata>
  <rdf:RDF xmlns:dc="http://purl.org/dc/elements/1.1/" xmlns:cc="http://creativecommons.org/ns#" xmlns:rdf="http://www.w3.org/1999/02/22-rdf-syntax-ns#">
   <cc:Work>
    <dc:type rdf:resource="http://purl.org/dc/dcmitype/StillImage"/>
    <dc:date>2022-06-21T09:04:38.132330</dc:date>
    <dc:format>image/svg+xml</dc:format>
    <dc:creator>
     <cc:Agent>
      <dc:title>Matplotlib v3.5.2, https://matplotlib.org/</dc:title>
     </cc:Agent>
    </dc:creator>
   </cc:Work>
  </rdf:RDF>
 </metadata>
 <defs>
  <style type="text/css">*{stroke-linejoin: round; stroke-linecap: butt}</style>
 </defs>
 <g id="figure_1">
  <g id="patch_1">
   <path d="M 0 360 
L 864 360 
L 864 0 
L 0 0 
L 0 360 
z
" style="fill: none; opacity: 0"/>
  </g>
  <g id="axes_1">
   <g id="patch_2">
    <path d="M 108 320.4 
L 777.6 320.4 
L 777.6 43.2 
L 108 43.2 
L 108 320.4 
z
" style="fill: none; opacity: 0"/>
   </g>
   <g id="matplotlib.axis_1">
    <g id="xtick_1">
     <g id="line2d_1">
      <path d="M 209.943483 320.4 
L 209.943483 43.2 
" clip-path="url(#p7c216dcbab)" style="fill: none; stroke-dasharray: 5.12,1.28,0.8,1.28; stroke-dashoffset: 0; stroke: #b0b0b0; stroke-width: 0.8"/>
     </g>
     <g id="line2d_2">
      <defs>
       <path id="m6e677a8043" d="M 0 0 
L 0 3.5 
" style="stroke: #a9a9a9; stroke-width: 0.8"/>
      </defs>
      <g>
       <use xlink:href="#m6e677a8043" x="209.943483" y="320.4" style="fill: #a9a9a9; stroke: #a9a9a9; stroke-width: 0.8"/>
      </g>
     </g>
     <g id="text_1">
      <!-- 2021-09 -->
      <g style="fill: #a9a9a9" transform="translate(189.052077 334.998438)scale(0.1 -0.1)">
       <defs>
        <path id="DejaVuSans-32" d="M 1228 531 
L 3431 531 
L 3431 0 
L 469 0 
L 469 531 
Q 828 903 1448 1529 
Q 2069 2156 2228 2338 
Q 2531 2678 2651 2914 
Q 2772 3150 2772 3378 
Q 2772 3750 2511 3984 
Q 2250 4219 1831 4219 
Q 1534 4219 1204 4116 
Q 875 4013 500 3803 
L 500 4441 
Q 881 4594 1212 4672 
Q 1544 4750 1819 4750 
Q 2544 4750 2975 4387 
Q 3406 4025 3406 3419 
Q 3406 3131 3298 2873 
Q 3191 2616 2906 2266 
Q 2828 2175 2409 1742 
Q 1991 1309 1228 531 
z
" transform="scale(0.015625)"/>
        <path id="DejaVuSans-30" d="M 2034 4250 
Q 1547 4250 1301 3770 
Q 1056 3291 1056 2328 
Q 1056 1369 1301 889 
Q 1547 409 2034 409 
Q 2525 409 2770 889 
Q 3016 1369 3016 2328 
Q 3016 3291 2770 3770 
Q 2525 4250 2034 4250 
z
M 2034 4750 
Q 2819 4750 3233 4129 
Q 3647 3509 3647 2328 
Q 3647 1150 3233 529 
Q 2819 -91 2034 -91 
Q 1250 -91 836 529 
Q 422 1150 422 2328 
Q 422 3509 836 4129 
Q 1250 4750 2034 4750 
z
" transform="scale(0.015625)"/>
        <path id="DejaVuSans-31" d="M 794 531 
L 1825 531 
L 1825 4091 
L 703 3866 
L 703 4441 
L 1819 4666 
L 2450 4666 
L 2450 531 
L 3481 531 
L 3481 0 
L 794 0 
L 794 531 
z
" transform="scale(0.015625)"/>
        <path id="DejaVuSans-2d" d="M 313 2009 
L 1997 2009 
L 1997 1497 
L 313 1497 
L 313 2009 
z
" transform="scale(0.015625)"/>
        <path id="DejaVuSans-39" d="M 703 97 
L 703 672 
Q 941 559 1184 500 
Q 1428 441 1663 441 
Q 2288 441 2617 861 
Q 2947 1281 2994 2138 
Q 2813 1869 2534 1725 
Q 2256 1581 1919 1581 
Q 1219 1581 811 2004 
Q 403 2428 403 3163 
Q 403 3881 828 4315 
Q 1253 4750 1959 4750 
Q 2769 4750 3195 4129 
Q 3622 3509 3622 2328 
Q 3622 1225 3098 567 
Q 2575 -91 1691 -91 
Q 1453 -91 1209 -44 
Q 966 3 703 97 
z
M 1959 2075 
Q 2384 2075 2632 2365 
Q 2881 2656 2881 3163 
Q 2881 3666 2632 3958 
Q 2384 4250 1959 4250 
Q 1534 4250 1286 3958 
Q 1038 3666 1038 3163 
Q 1038 2656 1286 2365 
Q 1534 2075 1959 2075 
z
" transform="scale(0.015625)"/>
       </defs>
       <use xlink:href="#DejaVuSans-32"/>
       <use xlink:href="#DejaVuSans-30" x="63.623047"/>
       <use xlink:href="#DejaVuSans-32" x="127.246094"/>
       <use xlink:href="#DejaVuSans-31" x="190.869141"/>
       <use xlink:href="#DejaVuSans-2d" x="254.492188"/>
       <use xlink:href="#DejaVuSans-30" x="290.576172"/>
       <use xlink:href="#DejaVuSans-39" x="354.199219"/>
      </g>
     </g>
    </g>
    <g id="xtick_2">
     <g id="line2d_3">
      <path d="M 321.787952 320.4 
L 321.787952 43.2 
" clip-path="url(#p7c216dcbab)" style="fill: none; stroke-dasharray: 5.12,1.28,0.8,1.28; stroke-dashoffset: 0; stroke: #b0b0b0; stroke-width: 0.8"/>
     </g>
     <g id="line2d_4">
      <g>
       <use xlink:href="#m6e677a8043" x="321.787952" y="320.4" style="fill: #a9a9a9; stroke: #a9a9a9; stroke-width: 0.8"/>
      </g>
     </g>
     <g id="text_2">
      <!-- 2021-11 -->
      <g style="fill: #a9a9a9" transform="translate(300.896546 334.998438)scale(0.1 -0.1)">
       <use xlink:href="#DejaVuSans-32"/>
       <use xlink:href="#DejaVuSans-30" x="63.623047"/>
       <use xlink:href="#DejaVuSans-32" x="127.246094"/>
       <use xlink:href="#DejaVuSans-31" x="190.869141"/>
       <use xlink:href="#DejaVuSans-2d" x="254.492188"/>
       <use xlink:href="#DejaVuSans-31" x="290.576172"/>
       <use xlink:href="#DejaVuSans-31" x="354.199219"/>
      </g>
     </g>
    </g>
    <g id="xtick_3">
     <g id="line2d_5">
      <path d="M 433.632421 320.4 
L 433.632421 43.2 
" clip-path="url(#p7c216dcbab)" style="fill: none; stroke-dasharray: 5.12,1.28,0.8,1.28; stroke-dashoffset: 0; stroke: #b0b0b0; stroke-width: 0.8"/>
     </g>
     <g id="line2d_6">
      <g>
       <use xlink:href="#m6e677a8043" x="433.632421" y="320.4" style="fill: #a9a9a9; stroke: #a9a9a9; stroke-width: 0.8"/>
      </g>
     </g>
     <g id="text_3">
      <!-- 2022-01 -->
      <g style="fill: #a9a9a9" transform="translate(412.741014 334.998438)scale(0.1 -0.1)">
       <use xlink:href="#DejaVuSans-32"/>
       <use xlink:href="#DejaVuSans-30" x="63.623047"/>
       <use xlink:href="#DejaVuSans-32" x="127.246094"/>
       <use xlink:href="#DejaVuSans-32" x="190.869141"/>
       <use xlink:href="#DejaVuSans-2d" x="254.492188"/>
       <use xlink:href="#DejaVuSans-30" x="290.576172"/>
       <use xlink:href="#DejaVuSans-31" x="354.199219"/>
      </g>
     </g>
    </g>
    <g id="xtick_4">
     <g id="line2d_7">
      <path d="M 541.809858 320.4 
L 541.809858 43.2 
" clip-path="url(#p7c216dcbab)" style="fill: none; stroke-dasharray: 5.12,1.28,0.8,1.28; stroke-dashoffset: 0; stroke: #b0b0b0; stroke-width: 0.8"/>
     </g>
     <g id="line2d_8">
      <g>
       <use xlink:href="#m6e677a8043" x="541.809858" y="320.4" style="fill: #a9a9a9; stroke: #a9a9a9; stroke-width: 0.8"/>
      </g>
     </g>
     <g id="text_4">
      <!-- 2022-03 -->
      <g style="fill: #a9a9a9" transform="translate(520.918451 334.998438)scale(0.1 -0.1)">
       <defs>
        <path id="DejaVuSans-33" d="M 2597 2516 
Q 3050 2419 3304 2112 
Q 3559 1806 3559 1356 
Q 3559 666 3084 287 
Q 2609 -91 1734 -91 
Q 1441 -91 1130 -33 
Q 819 25 488 141 
L 488 750 
Q 750 597 1062 519 
Q 1375 441 1716 441 
Q 2309 441 2620 675 
Q 2931 909 2931 1356 
Q 2931 1769 2642 2001 
Q 2353 2234 1838 2234 
L 1294 2234 
L 1294 2753 
L 1863 2753 
Q 2328 2753 2575 2939 
Q 2822 3125 2822 3475 
Q 2822 3834 2567 4026 
Q 2313 4219 1838 4219 
Q 1578 4219 1281 4162 
Q 984 4106 628 3988 
L 628 4550 
Q 988 4650 1302 4700 
Q 1616 4750 1894 4750 
Q 2613 4750 3031 4423 
Q 3450 4097 3450 3541 
Q 3450 3153 3228 2886 
Q 3006 2619 2597 2516 
z
" transform="scale(0.015625)"/>
       </defs>
       <use xlink:href="#DejaVuSans-32"/>
       <use xlink:href="#DejaVuSans-30" x="63.623047"/>
       <use xlink:href="#DejaVuSans-32" x="127.246094"/>
       <use xlink:href="#DejaVuSans-32" x="190.869141"/>
       <use xlink:href="#DejaVuSans-2d" x="254.492188"/>
       <use xlink:href="#DejaVuSans-30" x="290.576172"/>
       <use xlink:href="#DejaVuSans-33" x="354.199219"/>
      </g>
     </g>
    </g>
    <g id="xtick_5">
     <g id="line2d_9">
      <path d="M 653.654326 320.4 
L 653.654326 43.2 
" clip-path="url(#p7c216dcbab)" style="fill: none; stroke-dasharray: 5.12,1.28,0.8,1.28; stroke-dashoffset: 0; stroke: #b0b0b0; stroke-width: 0.8"/>
     </g>
     <g id="line2d_10">
      <g>
       <use xlink:href="#m6e677a8043" x="653.654326" y="320.4" style="fill: #a9a9a9; stroke: #a9a9a9; stroke-width: 0.8"/>
      </g>
     </g>
     <g id="text_5">
      <!-- 2022-05 -->
      <g style="fill: #a9a9a9" transform="translate(632.76292 334.998438)scale(0.1 -0.1)">
       <defs>
        <path id="DejaVuSans-35" d="M 691 4666 
L 3169 4666 
L 3169 4134 
L 1269 4134 
L 1269 2991 
Q 1406 3038 1543 3061 
Q 1681 3084 1819 3084 
Q 2600 3084 3056 2656 
Q 3513 2228 3513 1497 
Q 3513 744 3044 326 
Q 2575 -91 1722 -91 
Q 1428 -91 1123 -41 
Q 819 9 494 109 
L 494 744 
Q 775 591 1075 516 
Q 1375 441 1709 441 
Q 2250 441 2565 725 
Q 2881 1009 2881 1497 
Q 2881 1984 2565 2268 
Q 2250 2553 1709 2553 
Q 1456 2553 1204 2497 
Q 953 2441 691 2322 
L 691 4666 
z
" transform="scale(0.015625)"/>
       </defs>
       <use xlink:href="#DejaVuSans-32"/>
       <use xlink:href="#DejaVuSans-30" x="63.623047"/>
       <use xlink:href="#DejaVuSans-32" x="127.246094"/>
       <use xlink:href="#DejaVuSans-32" x="190.869141"/>
       <use xlink:href="#DejaVuSans-2d" x="254.492188"/>
       <use xlink:href="#DejaVuSans-30" x="290.576172"/>
       <use xlink:href="#DejaVuSans-35" x="354.199219"/>
      </g>
     </g>
    </g>
    <g id="xtick_6">
     <g id="line2d_11">
      <path d="M 765.498795 320.4 
L 765.498795 43.2 
" clip-path="url(#p7c216dcbab)" style="fill: none; stroke-dasharray: 5.12,1.28,0.8,1.28; stroke-dashoffset: 0; stroke: #b0b0b0; stroke-width: 0.8"/>
     </g>
     <g id="line2d_12">
      <g>
       <use xlink:href="#m6e677a8043" x="765.498795" y="320.4" style="fill: #a9a9a9; stroke: #a9a9a9; stroke-width: 0.8"/>
      </g>
     </g>
     <g id="text_6">
      <!-- 2022-07 -->
      <g style="fill: #a9a9a9" transform="translate(744.607389 334.998438)scale(0.1 -0.1)">
       <defs>
        <path id="DejaVuSans-37" d="M 525 4666 
L 3525 4666 
L 3525 4397 
L 1831 0 
L 1172 0 
L 2766 4134 
L 525 4134 
L 525 4666 
z
" transform="scale(0.015625)"/>
       </defs>
       <use xlink:href="#DejaVuSans-32"/>
       <use xlink:href="#DejaVuSans-30" x="63.623047"/>
       <use xlink:href="#DejaVuSans-32" x="127.246094"/>
       <use xlink:href="#DejaVuSans-32" x="190.869141"/>
       <use xlink:href="#DejaVuSans-2d" x="254.492188"/>
       <use xlink:href="#DejaVuSans-30" x="290.576172"/>
       <use xlink:href="#DejaVuSans-37" x="354.199219"/>
      </g>
     </g>
    </g>
   </g>
   <g id="matplotlib.axis_2">
    <g id="ytick_1">
     <g id="line2d_13">
      <path d="M 108 307.917757 
L 777.6 307.917757 
" clip-path="url(#p7c216dcbab)" style="fill: none; stroke-dasharray: 5.12,1.28,0.8,1.28; stroke-dashoffset: 0; stroke: #b0b0b0; stroke-width: 0.8"/>
     </g>
     <g id="line2d_14">
      <defs>
       <path id="m4afa8dc4aa" d="M 0 0 
L -3.5 0 
" style="stroke: #a9a9a9; stroke-width: 0.8"/>
      </defs>
      <g>
       <use xlink:href="#m4afa8dc4aa" x="108" y="307.917757" style="fill: #a9a9a9; stroke: #a9a9a9; stroke-width: 0.8"/>
      </g>
     </g>
     <g id="text_7">
      <!-- 0 -->
      <g style="fill: #a9a9a9" transform="translate(94.6375 311.716976)scale(0.1 -0.1)">
       <use xlink:href="#DejaVuSans-30"/>
      </g>
     </g>
    </g>
    <g id="ytick_2">
     <g id="line2d_15">
      <path d="M 108 278.478505 
L 777.6 278.478505 
" clip-path="url(#p7c216dcbab)" style="fill: none; stroke-dasharray: 5.12,1.28,0.8,1.28; stroke-dashoffset: 0; stroke: #b0b0b0; stroke-width: 0.8"/>
     </g>
     <g id="line2d_16">
      <g>
       <use xlink:href="#m4afa8dc4aa" x="108" y="278.478505" style="fill: #a9a9a9; stroke: #a9a9a9; stroke-width: 0.8"/>
      </g>
     </g>
     <g id="text_8">
      <!-- 250 -->
      <g style="fill: #a9a9a9" transform="translate(81.9125 282.277723)scale(0.1 -0.1)">
       <use xlink:href="#DejaVuSans-32"/>
       <use xlink:href="#DejaVuSans-35" x="63.623047"/>
       <use xlink:href="#DejaVuSans-30" x="127.246094"/>
      </g>
     </g>
    </g>
    <g id="ytick_3">
     <g id="line2d_17">
      <path d="M 108 249.039252 
L 777.6 249.039252 
" clip-path="url(#p7c216dcbab)" style="fill: none; stroke-dasharray: 5.12,1.28,0.8,1.28; stroke-dashoffset: 0; stroke: #b0b0b0; stroke-width: 0.8"/>
     </g>
     <g id="line2d_18">
      <g>
       <use xlink:href="#m4afa8dc4aa" x="108" y="249.039252" style="fill: #a9a9a9; stroke: #a9a9a9; stroke-width: 0.8"/>
      </g>
     </g>
     <g id="text_9">
      <!-- 500 -->
      <g style="fill: #a9a9a9" transform="translate(81.9125 252.838471)scale(0.1 -0.1)">
       <use xlink:href="#DejaVuSans-35"/>
       <use xlink:href="#DejaVuSans-30" x="63.623047"/>
       <use xlink:href="#DejaVuSans-30" x="127.246094"/>
      </g>
     </g>
    </g>
    <g id="ytick_4">
     <g id="line2d_19">
      <path d="M 108 219.6 
L 777.6 219.6 
" clip-path="url(#p7c216dcbab)" style="fill: none; stroke-dasharray: 5.12,1.28,0.8,1.28; stroke-dashoffset: 0; stroke: #b0b0b0; stroke-width: 0.8"/>
     </g>
     <g id="line2d_20">
      <g>
       <use xlink:href="#m4afa8dc4aa" x="108" y="219.6" style="fill: #a9a9a9; stroke: #a9a9a9; stroke-width: 0.8"/>
      </g>
     </g>
     <g id="text_10">
      <!-- 750 -->
      <g style="fill: #a9a9a9" transform="translate(81.9125 223.399219)scale(0.1 -0.1)">
       <use xlink:href="#DejaVuSans-37"/>
       <use xlink:href="#DejaVuSans-35" x="63.623047"/>
       <use xlink:href="#DejaVuSans-30" x="127.246094"/>
      </g>
     </g>
    </g>
    <g id="ytick_5">
     <g id="line2d_21">
      <path d="M 108 190.160748 
L 777.6 190.160748 
" clip-path="url(#p7c216dcbab)" style="fill: none; stroke-dasharray: 5.12,1.28,0.8,1.28; stroke-dashoffset: 0; stroke: #b0b0b0; stroke-width: 0.8"/>
     </g>
     <g id="line2d_22">
      <g>
       <use xlink:href="#m4afa8dc4aa" x="108" y="190.160748" style="fill: #a9a9a9; stroke: #a9a9a9; stroke-width: 0.8"/>
      </g>
     </g>
     <g id="text_11">
      <!-- 1000 -->
      <g style="fill: #a9a9a9" transform="translate(75.55 193.959966)scale(0.1 -0.1)">
       <use xlink:href="#DejaVuSans-31"/>
       <use xlink:href="#DejaVuSans-30" x="63.623047"/>
       <use xlink:href="#DejaVuSans-30" x="127.246094"/>
       <use xlink:href="#DejaVuSans-30" x="190.869141"/>
      </g>
     </g>
    </g>
    <g id="ytick_6">
     <g id="line2d_23">
      <path d="M 108 160.721495 
L 777.6 160.721495 
" clip-path="url(#p7c216dcbab)" style="fill: none; stroke-dasharray: 5.12,1.28,0.8,1.28; stroke-dashoffset: 0; stroke: #b0b0b0; stroke-width: 0.8"/>
     </g>
     <g id="line2d_24">
      <g>
       <use xlink:href="#m4afa8dc4aa" x="108" y="160.721495" style="fill: #a9a9a9; stroke: #a9a9a9; stroke-width: 0.8"/>
      </g>
     </g>
     <g id="text_12">
      <!-- 1250 -->
      <g style="fill: #a9a9a9" transform="translate(75.55 164.520714)scale(0.1 -0.1)">
       <use xlink:href="#DejaVuSans-31"/>
       <use xlink:href="#DejaVuSans-32" x="63.623047"/>
       <use xlink:href="#DejaVuSans-35" x="127.246094"/>
       <use xlink:href="#DejaVuSans-30" x="190.869141"/>
      </g>
     </g>
    </g>
    <g id="ytick_7">
     <g id="line2d_25">
      <path d="M 108 131.282243 
L 777.6 131.282243 
" clip-path="url(#p7c216dcbab)" style="fill: none; stroke-dasharray: 5.12,1.28,0.8,1.28; stroke-dashoffset: 0; stroke: #b0b0b0; stroke-width: 0.8"/>
     </g>
     <g id="line2d_26">
      <g>
       <use xlink:href="#m4afa8dc4aa" x="108" y="131.282243" style="fill: #a9a9a9; stroke: #a9a9a9; stroke-width: 0.8"/>
      </g>
     </g>
     <g id="text_13">
      <!-- 1500 -->
      <g style="fill: #a9a9a9" transform="translate(75.55 135.081462)scale(0.1 -0.1)">
       <use xlink:href="#DejaVuSans-31"/>
       <use xlink:href="#DejaVuSans-35" x="63.623047"/>
       <use xlink:href="#DejaVuSans-30" x="127.246094"/>
       <use xlink:href="#DejaVuSans-30" x="190.869141"/>
      </g>
     </g>
    </g>
    <g id="ytick_8">
     <g id="line2d_27">
      <path d="M 108 101.842991 
L 777.6 101.842991 
" clip-path="url(#p7c216dcbab)" style="fill: none; stroke-dasharray: 5.12,1.28,0.8,1.28; stroke-dashoffset: 0; stroke: #b0b0b0; stroke-width: 0.8"/>
     </g>
     <g id="line2d_28">
      <g>
       <use xlink:href="#m4afa8dc4aa" x="108" y="101.842991" style="fill: #a9a9a9; stroke: #a9a9a9; stroke-width: 0.8"/>
      </g>
     </g>
     <g id="text_14">
      <!-- 1750 -->
      <g style="fill: #a9a9a9" transform="translate(75.55 105.642209)scale(0.1 -0.1)">
       <use xlink:href="#DejaVuSans-31"/>
       <use xlink:href="#DejaVuSans-37" x="63.623047"/>
       <use xlink:href="#DejaVuSans-35" x="127.246094"/>
       <use xlink:href="#DejaVuSans-30" x="190.869141"/>
      </g>
     </g>
    </g>
    <g id="ytick_9">
     <g id="line2d_29">
      <path d="M 108 72.403738 
L 777.6 72.403738 
" clip-path="url(#p7c216dcbab)" style="fill: none; stroke-dasharray: 5.12,1.28,0.8,1.28; stroke-dashoffset: 0; stroke: #b0b0b0; stroke-width: 0.8"/>
     </g>
     <g id="line2d_30">
      <g>
       <use xlink:href="#m4afa8dc4aa" x="108" y="72.403738" style="fill: #a9a9a9; stroke: #a9a9a9; stroke-width: 0.8"/>
      </g>
     </g>
     <g id="text_15">
      <!-- 2000 -->
      <g style="fill: #a9a9a9" transform="translate(75.55 76.202957)scale(0.1 -0.1)">
       <use xlink:href="#DejaVuSans-32"/>
       <use xlink:href="#DejaVuSans-30" x="63.623047"/>
       <use xlink:href="#DejaVuSans-30" x="127.246094"/>
       <use xlink:href="#DejaVuSans-30" x="190.869141"/>
      </g>
     </g>
    </g>
   </g>
   <g id="line2d_31">
    <path d="M 138.436364 307.446729 
L 142.103395 307.211215 
L 147.603943 306.504673 
L 149.437459 306.504673 
L 151.270975 305.798131 
L 154.938007 305.562617 
L 158.605038 304.856075 
L 160.438554 304.620561 
L 162.27207 304.149533 
L 164.105586 303.914019 
L 165.939102 303.442991 
L 167.772618 303.08972 
L 169.606134 302.971963 
L 171.43965 302.736449 
L 173.273165 302.383178 
L 178.773713 302.029907 
L 180.607229 301.08785 
L 182.440745 300.616822 
L 184.274261 298.497196 
L 186.107777 297.319626 
L 187.941292 293.080374 
L 189.774808 292.84486 
L 191.608324 291.431776 
L 193.44184 290.725234 
L 195.275356 289.665421 
L 200.775904 285.308411 
L 202.609419 284.366355 
L 206.276451 282.835514 
L 208.109967 281.540187 
L 209.943483 280.833645 
L 213.610515 278.596262 
L 215.444031 277.88972 
L 217.277547 274.945794 
L 219.111062 273.53271 
L 220.944578 272.472897 
L 222.778094 271.648598 
L 228.278642 270.942056 
L 231.945674 270.235514 
L 233.779189 270 
L 235.612705 269.646729 
L 239.279737 269.411215 
L 241.113253 268.940187 
L 242.946769 267.998131 
L 246.613801 267.762617 
L 248.447317 267.762617 
L 250.280832 267.409346 
L 253.947864 266.938318 
L 255.78138 266.820561 
L 257.614896 266.114019 
L 259.448412 265.760748 
L 261.281928 265.28972 
L 263.115444 264.936449 
L 264.948959 264.700935 
L 266.782475 264.347664 
L 268.615991 264.229907 
L 270.449507 263.994393 
L 272.283023 263.523364 
L 274.116539 263.28785 
L 275.950055 263.170093 
L 277.783571 262.816822 
L 279.617087 261.874766 
L 281.450602 261.639252 
L 285.117634 260.343925 
L 286.95115 260.108411 
L 288.784666 259.990654 
L 290.618182 259.401869 
L 292.451698 259.048598 
L 294.285214 258.930841 
L 296.118729 258.459813 
L 297.952245 258.224299 
L 301.619277 257.046729 
L 303.452793 256.811215 
L 305.286309 256.811215 
L 307.119825 256.575701 
L 308.953341 256.457944 
L 310.786857 256.22243 
L 312.620372 255.633645 
L 314.453888 255.515888 
L 316.287404 254.927103 
L 319.954436 253.985047 
L 321.787952 253.749533 
L 325.454984 253.514019 
L 327.288499 253.160748 
L 329.122015 252.925234 
L 330.955531 252.454206 
L 332.789047 251.747664 
L 334.622563 249.392523 
L 336.456079 248.685981 
L 338.289595 247.743925 
L 340.123111 247.508411 
L 341.956627 247.037383 
L 343.790142 246.801869 
L 347.457174 245.271028 
L 349.29069 245.153271 
L 352.957722 244.211215 
L 354.791238 243.62243 
L 358.458269 242.680374 
L 360.291785 242.680374 
L 363.958817 242.209346 
L 365.792333 241.502804 
L 367.625849 241.031776 
L 371.292881 239.854206 
L 373.126396 239.500935 
L 374.959912 239.383178 
L 378.626944 237.852336 
L 380.46046 237.616822 
L 382.293976 236.792523 
L 384.127492 236.557009 
L 387.794524 236.321495 
L 389.628039 235.968224 
L 391.461555 235.497196 
L 393.295071 235.379439 
L 395.128587 235.143925 
L 398.795619 234.437383 
L 400.629135 234.201869 
L 402.462651 233.730841 
L 404.296166 233.142056 
L 406.129682 232.906542 
L 407.963198 232.082243 
L 409.796714 231.493458 
L 411.63023 230.433645 
L 413.463746 229.962617 
L 415.297262 229.727103 
L 418.964294 228.549533 
L 422.631325 226.547664 
L 424.464841 225.252336 
L 426.298357 225.016822 
L 428.131873 224.428037 
L 429.965389 224.192523 
L 431.798905 223.721495 
L 433.632421 223.485981 
L 435.465936 222.661682 
L 439.132968 221.95514 
L 442.8 220.188785 
L 444.633516 219.717757 
L 446.467032 219.482243 
L 448.300548 218.775701 
L 450.134064 218.42243 
L 451.967579 217.951402 
L 453.801095 217.598131 
L 455.634611 217.362617 
L 459.301643 215.714019 
L 461.135159 215.360748 
L 462.968675 214.536449 
L 464.802191 214.300935 
L 466.635706 213.476636 
L 468.469222 213.005607 
L 470.302738 212.770093 
L 472.136254 212.652336 
L 473.96977 212.063551 
L 475.803286 211.357009 
L 477.636802 211.121495 
L 479.470318 211.121495 
L 481.303834 210.297196 
L 483.137349 209.943925 
L 484.970865 209.708411 
L 486.804381 209.001869 
L 488.637897 209.001869 
L 490.471413 208.884112 
L 492.304929 208.648598 
L 494.138445 208.530841 
L 495.971961 208.295327 
L 497.805476 207.942056 
L 501.472508 206.175701 
L 505.13954 204.527103 
L 506.973056 204.056075 
L 508.806572 202.878505 
L 510.640088 202.28972 
L 514.307119 200.641121 
L 516.140635 200.28785 
L 517.974151 199.463551 
L 519.807667 198.874766 
L 521.641183 197.579439 
L 523.474699 196.637383 
L 525.308215 194.753271 
L 527.141731 191.573832 
L 528.975246 188.983178 
L 530.808762 188.394393 
L 532.642278 188.276636 
L 536.30931 185.568224 
L 538.142826 185.097196 
L 539.976342 184.037383 
L 541.809858 183.684112 
L 543.643373 182.035514 
L 545.476889 181.564486 
L 550.977437 179.091589 
L 552.810953 176.971963 
L 554.644469 174.028037 
L 556.477985 172.968224 
L 558.311501 170.024299 
L 560.145016 168.257944 
L 561.978532 167.315888 
L 563.812048 166.727103 
L 565.645564 165.431776 
L 569.312596 163.665421 
L 571.146112 162.370093 
L 572.979628 160.839252 
L 576.646659 158.366355 
L 578.480175 155.657944 
L 580.313691 151.300935 
L 582.147207 148.592523 
L 583.980723 147.061682 
L 585.814239 146.119626 
L 589.481271 142.586916 
L 593.148302 139.642991 
L 596.815334 136.699065 
L 598.64885 135.050467 
L 600.482366 132.459813 
L 602.315882 130.693458 
L 604.149398 129.280374 
L 607.816429 126.807477 
L 613.316977 122.568224 
L 615.150493 122.097196 
L 620.651041 119.153271 
L 624.318072 117.151402 
L 626.151588 116.327103 
L 629.81862 113.147664 
L 631.652136 110.792523 
L 635.319168 108.319626 
L 637.152683 107.848598 
L 638.986199 106.906542 
L 640.819715 105.611215 
L 644.486747 103.727103 
L 646.320263 103.373832 
L 651.820811 99.958879 
L 653.654326 98.192523 
L 655.487842 96.897196 
L 657.321358 96.308411 
L 659.154874 95.013084 
L 660.98839 94.188785 
L 662.821906 92.893458 
L 664.655422 92.069159 
L 666.488938 90.891589 
L 668.322453 89.360748 
L 670.155969 88.771963 
L 671.989485 88.065421 
L 673.823001 87.123364 
L 675.656517 86.534579 
L 677.490033 85.357009 
L 679.323549 84.885981 
L 693.991676 79.233645 
L 697.658708 78.527103 
L 699.492223 76.760748 
L 701.325739 75.347664 
L 703.159255 74.641121 
L 710.493319 70.401869 
L 712.326835 69.57757 
L 714.16035 68.988785 
L 715.993866 67.575701 
L 717.827382 66.869159 
L 723.32793 63.454206 
L 725.161446 63.100935 
L 726.994962 62.629907 
L 728.828478 62.276636 
L 730.661993 61.68785 
L 732.495509 61.216822 
L 737.996057 58.15514 
L 739.829573 57.919626 
L 741.663089 57.213084 
L 743.496605 56.859813 
L 745.33012 55.8 
L 747.163636 55.8 
L 747.163636 55.8 
" clip-path="url(#p7c216dcbab)" style="fill: none; stroke: #1f77b4; stroke-width: 1.5; stroke-linecap: square"/>
   </g>
   <g id="line2d_32">
    <path d="M 140.26988 307.8 
L 143.936911 307.8 
L 147.603943 307.328972 
L 156.771522 307.328972 
L 160.438554 307.093458 
L 162.27207 307.093458 
L 164.105586 306.975701 
L 167.772618 306.975701 
L 171.43965 306.740187 
L 178.773713 306.740187 
L 180.607229 306.269159 
L 182.440745 306.269159 
L 184.274261 306.033645 
L 186.107777 306.033645 
L 187.941292 305.798131 
L 189.774808 305.680374 
L 195.275356 304.973832 
L 200.775904 304.620561 
L 202.609419 304.620561 
L 206.276451 304.385047 
L 208.109967 304.149533 
L 211.776999 304.149533 
L 213.610515 303.796262 
L 215.444031 303.796262 
L 217.277547 303.678505 
L 219.111062 303.678505 
L 222.778094 303.207477 
L 230.112158 303.207477 
L 231.945674 302.971963 
L 239.279737 302.971963 
L 242.946769 302.736449 
L 244.780285 302.736449 
L 246.613801 302.618692 
L 257.614896 302.618692 
L 259.448412 302.500935 
L 263.115444 302.500935 
L 264.948959 302.383178 
L 270.449507 302.383178 
L 272.283023 302.265421 
L 274.116539 302.265421 
L 275.950055 302.147664 
L 277.783571 302.147664 
L 279.617087 302.029907 
L 286.95115 302.029907 
L 288.784666 301.794393 
L 290.618182 301.794393 
L 292.451698 301.676636 
L 294.285214 301.676636 
L 297.952245 301.441121 
L 299.785761 301.441121 
L 301.619277 301.323364 
L 308.953341 301.323364 
L 310.786857 301.205607 
L 314.453888 301.205607 
L 316.287404 301.08785 
L 321.787952 301.08785 
L 323.621468 300.970093 
L 325.454984 300.970093 
L 327.288499 300.734579 
L 329.122015 300.616822 
L 330.955531 300.263551 
L 332.789047 300.263551 
L 334.622563 300.145794 
L 340.123111 300.145794 
L 341.956627 300.028037 
L 343.790142 299.792523 
L 347.457174 299.792523 
L 349.29069 299.674766 
L 351.124206 299.674766 
L 352.957722 299.557009 
L 358.458269 299.557009 
L 362.125301 299.321495 
L 365.792333 299.321495 
L 367.625849 299.203738 
L 369.459365 298.968224 
L 371.292881 298.850467 
L 373.126396 298.614953 
L 374.959912 298.497196 
L 376.793428 298.497196 
L 378.626944 298.379439 
L 380.46046 298.379439 
L 382.293976 298.261682 
L 384.127492 298.261682 
L 385.961008 298.143925 
L 391.461555 298.143925 
L 393.295071 297.908411 
L 398.795619 297.908411 
L 400.629135 297.672897 
L 402.462651 297.55514 
L 404.296166 297.319626 
L 406.129682 297.319626 
L 407.963198 297.201869 
L 409.796714 297.201869 
L 411.63023 297.084112 
L 417.130778 297.084112 
L 418.964294 296.848598 
L 420.797809 296.495327 
L 426.298357 296.142056 
L 428.131873 295.788785 
L 429.965389 295.788785 
L 431.798905 295.671028 
L 435.465936 295.671028 
L 437.299452 295.553271 
L 439.132968 295.317757 
L 440.966484 295.2 
L 442.8 294.964486 
L 448.300548 294.611215 
L 450.134064 294.611215 
L 453.801095 294.375701 
L 457.468127 294.375701 
L 462.968675 294.02243 
L 466.635706 294.02243 
L 468.469222 293.786916 
L 472.136254 293.551402 
L 475.803286 293.551402 
L 477.636802 293.315888 
L 479.470318 293.315888 
L 483.137349 293.080374 
L 484.970865 292.84486 
L 488.637897 292.84486 
L 490.471413 292.727103 
L 492.304929 292.727103 
L 497.805476 292.373832 
L 503.306024 292.373832 
L 506.973056 292.138318 
L 514.307119 292.138318 
L 516.140635 292.020561 
L 517.974151 292.020561 
L 519.807667 291.785047 
L 521.641183 291.431776 
L 525.308215 291.196262 
L 527.141731 291.196262 
L 528.975246 290.960748 
L 530.808762 290.842991 
L 532.642278 290.842991 
L 536.30931 290.607477 
L 538.142826 290.607477 
L 539.976342 290.254206 
L 541.809858 290.136449 
L 543.643373 289.900935 
L 545.476889 289.429907 
L 549.143921 289.194393 
L 550.977437 288.723364 
L 552.810953 288.605607 
L 554.644469 288.370093 
L 556.477985 288.252336 
L 558.311501 287.781308 
L 560.145016 287.428037 
L 561.978532 287.31028 
L 563.812048 287.31028 
L 565.645564 287.192523 
L 567.47908 287.192523 
L 569.312596 286.957009 
L 571.146112 286.957009 
L 572.979628 286.721495 
L 576.646659 286.014953 
L 578.480175 285.543925 
L 582.147207 285.072897 
L 583.980723 285.072897 
L 587.647755 284.601869 
L 589.481271 284.601869 
L 594.981818 284.248598 
L 598.64885 283.77757 
L 602.315882 283.542056 
L 604.149398 283.542056 
L 605.982913 283.424299 
L 607.816429 283.188785 
L 609.649945 283.071028 
L 613.316977 283.071028 
L 615.150493 282.835514 
L 616.984009 282.482243 
L 618.817525 282.364486 
L 620.651041 282.128972 
L 622.484556 282.128972 
L 624.318072 281.775701 
L 626.151588 281.540187 
L 627.985104 281.186916 
L 631.652136 280.951402 
L 637.152683 280.951402 
L 638.986199 280.480374 
L 640.819715 280.24486 
L 642.653231 280.24486 
L 646.320263 280.009346 
L 648.153779 280.009346 
L 649.987295 279.656075 
L 651.820811 279.538318 
L 653.654326 279.538318 
L 657.321358 279.06729 
L 659.154874 278.714019 
L 660.98839 278.242991 
L 662.821906 278.007477 
L 664.655422 278.007477 
L 668.322453 277.771963 
L 670.155969 277.536449 
L 671.989485 277.536449 
L 675.656517 277.300935 
L 679.323549 277.300935 
L 682.990581 277.065421 
L 684.824096 277.065421 
L 688.491128 276.594393 
L 690.324644 276.476636 
L 692.15816 276.476636 
L 695.825192 276.241121 
L 697.658708 276.005607 
L 703.159255 275.652336 
L 708.659803 275.652336 
L 710.493319 275.416822 
L 712.326835 275.299065 
L 715.993866 275.299065 
L 717.827382 274.945794 
L 719.660898 274.828037 
L 721.494414 274.592523 
L 723.32793 274.474766 
L 725.161446 274.474766 
L 726.994962 274.239252 
L 730.661993 274.239252 
L 732.495509 274.121495 
L 734.329025 273.768224 
L 737.996057 273.768224 
L 739.829573 273.53271 
L 741.663089 273.53271 
L 745.33012 273.297196 
L 747.163636 273.297196 
L 747.163636 273.297196 
" clip-path="url(#p7c216dcbab)" style="fill: none; stroke: #ff7f0e; stroke-width: 1.5; stroke-linecap: square"/>
   </g>
   <g id="patch_3">
    <path d="M 108 320.4 
L 108 43.2 
" style="fill: none; stroke: #a9a9a9; stroke-width: 0.8; stroke-linejoin: miter; stroke-linecap: square"/>
   </g>
   <g id="patch_4">
    <path d="M 777.6 320.4 
L 777.6 43.2 
" style="fill: none"/>
   </g>
   <g id="patch_5">
    <path d="M 108 320.4 
L 777.6 320.4 
" style="fill: none; stroke: #a9a9a9; stroke-width: 0.8; stroke-linejoin: miter; stroke-linecap: square"/>
   </g>
   <g id="patch_6">
    <path d="M 108 43.2 
L 777.6 43.2 
" style="fill: none"/>
   </g>
   <g id="text_16">
    <!-- get_subscribe history -->
    <g style="fill: #a9a9a9" transform="translate(378.6075 37.2)scale(0.12 -0.12)">
     <defs>
      <path id="DejaVuSans-67" d="M 2906 1791 
Q 2906 2416 2648 2759 
Q 2391 3103 1925 3103 
Q 1463 3103 1205 2759 
Q 947 2416 947 1791 
Q 947 1169 1205 825 
Q 1463 481 1925 481 
Q 2391 481 2648 825 
Q 2906 1169 2906 1791 
z
M 3481 434 
Q 3481 -459 3084 -895 
Q 2688 -1331 1869 -1331 
Q 1566 -1331 1297 -1286 
Q 1028 -1241 775 -1147 
L 775 -588 
Q 1028 -725 1275 -790 
Q 1522 -856 1778 -856 
Q 2344 -856 2625 -561 
Q 2906 -266 2906 331 
L 2906 616 
Q 2728 306 2450 153 
Q 2172 0 1784 0 
Q 1141 0 747 490 
Q 353 981 353 1791 
Q 353 2603 747 3093 
Q 1141 3584 1784 3584 
Q 2172 3584 2450 3431 
Q 2728 3278 2906 2969 
L 2906 3500 
L 3481 3500 
L 3481 434 
z
" transform="scale(0.015625)"/>
      <path id="DejaVuSans-65" d="M 3597 1894 
L 3597 1613 
L 953 1613 
Q 991 1019 1311 708 
Q 1631 397 2203 397 
Q 2534 397 2845 478 
Q 3156 559 3463 722 
L 3463 178 
Q 3153 47 2828 -22 
Q 2503 -91 2169 -91 
Q 1331 -91 842 396 
Q 353 884 353 1716 
Q 353 2575 817 3079 
Q 1281 3584 2069 3584 
Q 2775 3584 3186 3129 
Q 3597 2675 3597 1894 
z
M 3022 2063 
Q 3016 2534 2758 2815 
Q 2500 3097 2075 3097 
Q 1594 3097 1305 2825 
Q 1016 2553 972 2059 
L 3022 2063 
z
" transform="scale(0.015625)"/>
      <path id="DejaVuSans-74" d="M 1172 4494 
L 1172 3500 
L 2356 3500 
L 2356 3053 
L 1172 3053 
L 1172 1153 
Q 1172 725 1289 603 
Q 1406 481 1766 481 
L 2356 481 
L 2356 0 
L 1766 0 
Q 1100 0 847 248 
Q 594 497 594 1153 
L 594 3053 
L 172 3053 
L 172 3500 
L 594 3500 
L 594 4494 
L 1172 4494 
z
" transform="scale(0.015625)"/>
      <path id="DejaVuSans-5f" d="M 3263 -1063 
L 3263 -1509 
L -63 -1509 
L -63 -1063 
L 3263 -1063 
z
" transform="scale(0.015625)"/>
      <path id="DejaVuSans-73" d="M 2834 3397 
L 2834 2853 
Q 2591 2978 2328 3040 
Q 2066 3103 1784 3103 
Q 1356 3103 1142 2972 
Q 928 2841 928 2578 
Q 928 2378 1081 2264 
Q 1234 2150 1697 2047 
L 1894 2003 
Q 2506 1872 2764 1633 
Q 3022 1394 3022 966 
Q 3022 478 2636 193 
Q 2250 -91 1575 -91 
Q 1294 -91 989 -36 
Q 684 19 347 128 
L 347 722 
Q 666 556 975 473 
Q 1284 391 1588 391 
Q 1994 391 2212 530 
Q 2431 669 2431 922 
Q 2431 1156 2273 1281 
Q 2116 1406 1581 1522 
L 1381 1569 
Q 847 1681 609 1914 
Q 372 2147 372 2553 
Q 372 3047 722 3315 
Q 1072 3584 1716 3584 
Q 2034 3584 2315 3537 
Q 2597 3491 2834 3397 
z
" transform="scale(0.015625)"/>
      <path id="DejaVuSans-75" d="M 544 1381 
L 544 3500 
L 1119 3500 
L 1119 1403 
Q 1119 906 1312 657 
Q 1506 409 1894 409 
Q 2359 409 2629 706 
Q 2900 1003 2900 1516 
L 2900 3500 
L 3475 3500 
L 3475 0 
L 2900 0 
L 2900 538 
Q 2691 219 2414 64 
Q 2138 -91 1772 -91 
Q 1169 -91 856 284 
Q 544 659 544 1381 
z
M 1991 3584 
L 1991 3584 
z
" transform="scale(0.015625)"/>
      <path id="DejaVuSans-62" d="M 3116 1747 
Q 3116 2381 2855 2742 
Q 2594 3103 2138 3103 
Q 1681 3103 1420 2742 
Q 1159 2381 1159 1747 
Q 1159 1113 1420 752 
Q 1681 391 2138 391 
Q 2594 391 2855 752 
Q 3116 1113 3116 1747 
z
M 1159 2969 
Q 1341 3281 1617 3432 
Q 1894 3584 2278 3584 
Q 2916 3584 3314 3078 
Q 3713 2572 3713 1747 
Q 3713 922 3314 415 
Q 2916 -91 2278 -91 
Q 1894 -91 1617 61 
Q 1341 213 1159 525 
L 1159 0 
L 581 0 
L 581 4863 
L 1159 4863 
L 1159 2969 
z
" transform="scale(0.015625)"/>
      <path id="DejaVuSans-63" d="M 3122 3366 
L 3122 2828 
Q 2878 2963 2633 3030 
Q 2388 3097 2138 3097 
Q 1578 3097 1268 2742 
Q 959 2388 959 1747 
Q 959 1106 1268 751 
Q 1578 397 2138 397 
Q 2388 397 2633 464 
Q 2878 531 3122 666 
L 3122 134 
Q 2881 22 2623 -34 
Q 2366 -91 2075 -91 
Q 1284 -91 818 406 
Q 353 903 353 1747 
Q 353 2603 823 3093 
Q 1294 3584 2113 3584 
Q 2378 3584 2631 3529 
Q 2884 3475 3122 3366 
z
" transform="scale(0.015625)"/>
      <path id="DejaVuSans-72" d="M 2631 2963 
Q 2534 3019 2420 3045 
Q 2306 3072 2169 3072 
Q 1681 3072 1420 2755 
Q 1159 2438 1159 1844 
L 1159 0 
L 581 0 
L 581 3500 
L 1159 3500 
L 1159 2956 
Q 1341 3275 1631 3429 
Q 1922 3584 2338 3584 
Q 2397 3584 2469 3576 
Q 2541 3569 2628 3553 
L 2631 2963 
z
" transform="scale(0.015625)"/>
      <path id="DejaVuSans-69" d="M 603 3500 
L 1178 3500 
L 1178 0 
L 603 0 
L 603 3500 
z
M 603 4863 
L 1178 4863 
L 1178 4134 
L 603 4134 
L 603 4863 
z
" transform="scale(0.015625)"/>
      <path id="DejaVuSans-20" transform="scale(0.015625)"/>
      <path id="DejaVuSans-68" d="M 3513 2113 
L 3513 0 
L 2938 0 
L 2938 2094 
Q 2938 2591 2744 2837 
Q 2550 3084 2163 3084 
Q 1697 3084 1428 2787 
Q 1159 2491 1159 1978 
L 1159 0 
L 581 0 
L 581 4863 
L 1159 4863 
L 1159 2956 
Q 1366 3272 1645 3428 
Q 1925 3584 2291 3584 
Q 2894 3584 3203 3211 
Q 3513 2838 3513 2113 
z
" transform="scale(0.015625)"/>
      <path id="DejaVuSans-6f" d="M 1959 3097 
Q 1497 3097 1228 2736 
Q 959 2375 959 1747 
Q 959 1119 1226 758 
Q 1494 397 1959 397 
Q 2419 397 2687 759 
Q 2956 1122 2956 1747 
Q 2956 2369 2687 2733 
Q 2419 3097 1959 3097 
z
M 1959 3584 
Q 2709 3584 3137 3096 
Q 3566 2609 3566 1747 
Q 3566 888 3137 398 
Q 2709 -91 1959 -91 
Q 1206 -91 779 398 
Q 353 888 353 1747 
Q 353 2609 779 3096 
Q 1206 3584 1959 3584 
z
" transform="scale(0.015625)"/>
      <path id="DejaVuSans-79" d="M 2059 -325 
Q 1816 -950 1584 -1140 
Q 1353 -1331 966 -1331 
L 506 -1331 
L 506 -850 
L 844 -850 
Q 1081 -850 1212 -737 
Q 1344 -625 1503 -206 
L 1606 56 
L 191 3500 
L 800 3500 
L 1894 763 
L 2988 3500 
L 3597 3500 
L 2059 -325 
z
" transform="scale(0.015625)"/>
     </defs>
     <use xlink:href="#DejaVuSans-67"/>
     <use xlink:href="#DejaVuSans-65" x="63.476562"/>
     <use xlink:href="#DejaVuSans-74" x="125"/>
     <use xlink:href="#DejaVuSans-5f" x="164.208984"/>
     <use xlink:href="#DejaVuSans-73" x="214.208984"/>
     <use xlink:href="#DejaVuSans-75" x="266.308594"/>
     <use xlink:href="#DejaVuSans-62" x="329.6875"/>
     <use xlink:href="#DejaVuSans-73" x="393.164062"/>
     <use xlink:href="#DejaVuSans-63" x="445.263672"/>
     <use xlink:href="#DejaVuSans-72" x="500.244141"/>
     <use xlink:href="#DejaVuSans-69" x="541.357422"/>
     <use xlink:href="#DejaVuSans-62" x="569.140625"/>
     <use xlink:href="#DejaVuSans-65" x="632.617188"/>
     <use xlink:href="#DejaVuSans-20" x="694.140625"/>
     <use xlink:href="#DejaVuSans-68" x="725.927734"/>
     <use xlink:href="#DejaVuSans-69" x="789.306641"/>
     <use xlink:href="#DejaVuSans-73" x="817.089844"/>
     <use xlink:href="#DejaVuSans-74" x="869.189453"/>
     <use xlink:href="#DejaVuSans-6f" x="908.398438"/>
     <use xlink:href="#DejaVuSans-72" x="969.580078"/>
     <use xlink:href="#DejaVuSans-79" x="1010.693359"/>
    </g>
   </g>
   <g id="legend_1">
    <g id="line2d_33">
     <path d="M 815.08 328.498438 
L 825.08 328.498438 
L 835.08 328.498438 
" style="fill: none; stroke: #1f77b4; stroke-width: 1.5; stroke-linecap: square"/>
    </g>
    <g id="text_17">
     <!-- star -->
     <g style="fill: #a9a9a9" transform="translate(843.08 331.998438)scale(0.1 -0.1)">
      <defs>
       <path id="DejaVuSans-61" d="M 2194 1759 
Q 1497 1759 1228 1600 
Q 959 1441 959 1056 
Q 959 750 1161 570 
Q 1363 391 1709 391 
Q 2188 391 2477 730 
Q 2766 1069 2766 1631 
L 2766 1759 
L 2194 1759 
z
M 3341 1997 
L 3341 0 
L 2766 0 
L 2766 531 
Q 2569 213 2275 61 
Q 1981 -91 1556 -91 
Q 1019 -91 701 211 
Q 384 513 384 1019 
Q 384 1609 779 1909 
Q 1175 2209 1959 2209 
L 2766 2209 
L 2766 2266 
Q 2766 2663 2505 2880 
Q 2244 3097 1772 3097 
Q 1472 3097 1187 3025 
Q 903 2953 641 2809 
L 641 3341 
Q 956 3463 1253 3523 
Q 1550 3584 1831 3584 
Q 2591 3584 2966 3190 
Q 3341 2797 3341 1997 
z
" transform="scale(0.015625)"/>
      </defs>
      <use xlink:href="#DejaVuSans-73"/>
      <use xlink:href="#DejaVuSans-74" x="52.099609"/>
      <use xlink:href="#DejaVuSans-61" x="91.308594"/>
      <use xlink:href="#DejaVuSans-72" x="152.587891"/>
     </g>
    </g>
    <g id="line2d_34">
     <path d="M 815.08 343.176562 
L 825.08 343.176562 
L 835.08 343.176562 
" style="fill: none; stroke: #ff7f0e; stroke-width: 1.5; stroke-linecap: square"/>
    </g>
    <g id="text_18">
     <!-- fork -->
     <g style="fill: #a9a9a9" transform="translate(843.08 346.676562)scale(0.1 -0.1)">
      <defs>
       <path id="DejaVuSans-66" d="M 2375 4863 
L 2375 4384 
L 1825 4384 
Q 1516 4384 1395 4259 
Q 1275 4134 1275 3809 
L 1275 3500 
L 2222 3500 
L 2222 3053 
L 1275 3053 
L 1275 0 
L 697 0 
L 697 3053 
L 147 3053 
L 147 3500 
L 697 3500 
L 697 3744 
Q 697 4328 969 4595 
Q 1241 4863 1831 4863 
L 2375 4863 
z
" transform="scale(0.015625)"/>
       <path id="DejaVuSans-6b" d="M 581 4863 
L 1159 4863 
L 1159 1991 
L 2875 3500 
L 3609 3500 
L 1753 1863 
L 3688 0 
L 2938 0 
L 1159 1709 
L 1159 0 
L 581 0 
L 581 4863 
z
" transform="scale(0.015625)"/>
      </defs>
      <use xlink:href="#DejaVuSans-66"/>
      <use xlink:href="#DejaVuSans-6f" x="35.205078"/>
      <use xlink:href="#DejaVuSans-72" x="96.386719"/>
      <use xlink:href="#DejaVuSans-6b" x="137.5"/>
     </g>
    </g>
   </g>
  </g>
 </g>
 <defs>
  <clipPath id="p7c216dcbab">
   <rect x="108" y="43.2" width="669.6" height="277.2"/>
  </clipPath>
 </defs>
</svg>
