<?xml version="1.0" encoding="utf-8" standalone="no"?>
<!DOCTYPE svg PUBLIC "-//W3C//DTD SVG 1.1//EN"
  "http://www.w3.org/Graphics/SVG/1.1/DTD/svg11.dtd">
<svg xmlns:xlink="http://www.w3.org/1999/xlink" width="864pt" height="360pt" viewBox="0 0 864 360" xmlns="http://www.w3.org/2000/svg" version="1.1">
 <metadata>
  <rdf:RDF xmlns:dc="http://purl.org/dc/elements/1.1/" xmlns:cc="http://creativecommons.org/ns#" xmlns:rdf="http://www.w3.org/1999/02/22-rdf-syntax-ns#">
   <cc:Work>
    <dc:type rdf:resource="http://purl.org/dc/dcmitype/StillImage"/>
    <dc:date>2022-06-22T09:12:26.653727</dc:date>
    <dc:format>image/svg+xml</dc:format>
    <dc:creator>
     <cc:Agent>
      <dc:title>Matplotlib v3.5.2, https://matplotlib.org/</dc:title>
     </cc:Agent>
    </dc:creator>
   </cc:Work>
  </rdf:RDF>
 </metadata>
 <defs>
  <style type="text/css">*{stroke-linejoin: round; stroke-linecap: butt}</style>
 </defs>
 <g id="figure_1">
  <g id="patch_1">
   <path d="M 0 360 
L 864 360 
L 864 0 
L 0 0 
L 0 360 
z
" style="fill: none; opacity: 0"/>
  </g>
  <g id="axes_1">
   <g id="patch_2">
    <path d="M 108 320.4 
L 777.6 320.4 
L 777.6 43.2 
L 108 43.2 
L 108 320.4 
z
" style="fill: none; opacity: 0"/>
   </g>
   <g id="matplotlib.axis_1">
    <g id="xtick_1">
     <g id="line2d_1">
      <path d="M 209.728747 320.4 
L 209.728747 43.2 
" clip-path="url(#pcf84d73c8f)" style="fill: none; stroke-dasharray: 5.12,1.28,0.8,1.28; stroke-dashoffset: 0; stroke: #b0b0b0; stroke-width: 0.8"/>
     </g>
     <g id="line2d_2">
      <defs>
       <path id="ma9e594b3cc" d="M 0 0 
L 0 3.5 
" style="stroke: #a9a9a9; stroke-width: 0.8"/>
      </defs>
      <g>
       <use xlink:href="#ma9e594b3cc" x="209.728747" y="320.4" style="fill: #a9a9a9; stroke: #a9a9a9; stroke-width: 0.8"/>
      </g>
     </g>
     <g id="text_1">
      <!-- 2021-09 -->
      <g style="fill: #a9a9a9" transform="translate(188.837341 334.998438)scale(0.1 -0.1)">
       <defs>
        <path id="DejaVuSans-32" d="M 1228 531 
L 3431 531 
L 3431 0 
L 469 0 
L 469 531 
Q 828 903 1448 1529 
Q 2069 2156 2228 2338 
Q 2531 2678 2651 2914 
Q 2772 3150 2772 3378 
Q 2772 3750 2511 3984 
Q 2250 4219 1831 4219 
Q 1534 4219 1204 4116 
Q 875 4013 500 3803 
L 500 4441 
Q 881 4594 1212 4672 
Q 1544 4750 1819 4750 
Q 2544 4750 2975 4387 
Q 3406 4025 3406 3419 
Q 3406 3131 3298 2873 
Q 3191 2616 2906 2266 
Q 2828 2175 2409 1742 
Q 1991 1309 1228 531 
z
" transform="scale(0.015625)"/>
        <path id="DejaVuSans-30" d="M 2034 4250 
Q 1547 4250 1301 3770 
Q 1056 3291 1056 2328 
Q 1056 1369 1301 889 
Q 1547 409 2034 409 
Q 2525 409 2770 889 
Q 3016 1369 3016 2328 
Q 3016 3291 2770 3770 
Q 2525 4250 2034 4250 
z
M 2034 4750 
Q 2819 4750 3233 4129 
Q 3647 3509 3647 2328 
Q 3647 1150 3233 529 
Q 2819 -91 2034 -91 
Q 1250 -91 836 529 
Q 422 1150 422 2328 
Q 422 3509 836 4129 
Q 1250 4750 2034 4750 
z
" transform="scale(0.015625)"/>
        <path id="DejaVuSans-31" d="M 794 531 
L 1825 531 
L 1825 4091 
L 703 3866 
L 703 4441 
L 1819 4666 
L 2450 4666 
L 2450 531 
L 3481 531 
L 3481 0 
L 794 0 
L 794 531 
z
" transform="scale(0.015625)"/>
        <path id="DejaVuSans-2d" d="M 313 2009 
L 1997 2009 
L 1997 1497 
L 313 1497 
L 313 2009 
z
" transform="scale(0.015625)"/>
        <path id="DejaVuSans-39" d="M 703 97 
L 703 672 
Q 941 559 1184 500 
Q 1428 441 1663 441 
Q 2288 441 2617 861 
Q 2947 1281 2994 2138 
Q 2813 1869 2534 1725 
Q 2256 1581 1919 1581 
Q 1219 1581 811 2004 
Q 403 2428 403 3163 
Q 403 3881 828 4315 
Q 1253 4750 1959 4750 
Q 2769 4750 3195 4129 
Q 3622 3509 3622 2328 
Q 3622 1225 3098 567 
Q 2575 -91 1691 -91 
Q 1453 -91 1209 -44 
Q 966 3 703 97 
z
M 1959 2075 
Q 2384 2075 2632 2365 
Q 2881 2656 2881 3163 
Q 2881 3666 2632 3958 
Q 2384 4250 1959 4250 
Q 1534 4250 1286 3958 
Q 1038 3666 1038 3163 
Q 1038 2656 1286 2365 
Q 1534 2075 1959 2075 
z
" transform="scale(0.015625)"/>
       </defs>
       <use xlink:href="#DejaVuSans-32"/>
       <use xlink:href="#DejaVuSans-30" x="63.623047"/>
       <use xlink:href="#DejaVuSans-32" x="127.246094"/>
       <use xlink:href="#DejaVuSans-31" x="190.869141"/>
       <use xlink:href="#DejaVuSans-2d" x="254.492188"/>
       <use xlink:href="#DejaVuSans-30" x="290.576172"/>
       <use xlink:href="#DejaVuSans-39" x="354.199219"/>
      </g>
     </g>
    </g>
    <g id="xtick_2">
     <g id="line2d_3">
      <path d="M 321.237346 320.4 
L 321.237346 43.2 
" clip-path="url(#pcf84d73c8f)" style="fill: none; stroke-dasharray: 5.12,1.28,0.8,1.28; stroke-dashoffset: 0; stroke: #b0b0b0; stroke-width: 0.8"/>
     </g>
     <g id="line2d_4">
      <g>
       <use xlink:href="#ma9e594b3cc" x="321.237346" y="320.4" style="fill: #a9a9a9; stroke: #a9a9a9; stroke-width: 0.8"/>
      </g>
     </g>
     <g id="text_2">
      <!-- 2021-11 -->
      <g style="fill: #a9a9a9" transform="translate(300.34594 334.998438)scale(0.1 -0.1)">
       <use xlink:href="#DejaVuSans-32"/>
       <use xlink:href="#DejaVuSans-30" x="63.623047"/>
       <use xlink:href="#DejaVuSans-32" x="127.246094"/>
       <use xlink:href="#DejaVuSans-31" x="190.869141"/>
       <use xlink:href="#DejaVuSans-2d" x="254.492188"/>
       <use xlink:href="#DejaVuSans-31" x="290.576172"/>
       <use xlink:href="#DejaVuSans-31" x="354.199219"/>
      </g>
     </g>
    </g>
    <g id="xtick_3">
     <g id="line2d_5">
      <path d="M 432.745946 320.4 
L 432.745946 43.2 
" clip-path="url(#pcf84d73c8f)" style="fill: none; stroke-dasharray: 5.12,1.28,0.8,1.28; stroke-dashoffset: 0; stroke: #b0b0b0; stroke-width: 0.8"/>
     </g>
     <g id="line2d_6">
      <g>
       <use xlink:href="#ma9e594b3cc" x="432.745946" y="320.4" style="fill: #a9a9a9; stroke: #a9a9a9; stroke-width: 0.8"/>
      </g>
     </g>
     <g id="text_3">
      <!-- 2022-01 -->
      <g style="fill: #a9a9a9" transform="translate(411.85454 334.998438)scale(0.1 -0.1)">
       <use xlink:href="#DejaVuSans-32"/>
       <use xlink:href="#DejaVuSans-30" x="63.623047"/>
       <use xlink:href="#DejaVuSans-32" x="127.246094"/>
       <use xlink:href="#DejaVuSans-32" x="190.869141"/>
       <use xlink:href="#DejaVuSans-2d" x="254.492188"/>
       <use xlink:href="#DejaVuSans-30" x="290.576172"/>
       <use xlink:href="#DejaVuSans-31" x="354.199219"/>
      </g>
     </g>
    </g>
    <g id="xtick_4">
     <g id="line2d_7">
      <path d="M 540.598526 320.4 
L 540.598526 43.2 
" clip-path="url(#pcf84d73c8f)" style="fill: none; stroke-dasharray: 5.12,1.28,0.8,1.28; stroke-dashoffset: 0; stroke: #b0b0b0; stroke-width: 0.8"/>
     </g>
     <g id="line2d_8">
      <g>
       <use xlink:href="#ma9e594b3cc" x="540.598526" y="320.4" style="fill: #a9a9a9; stroke: #a9a9a9; stroke-width: 0.8"/>
      </g>
     </g>
     <g id="text_4">
      <!-- 2022-03 -->
      <g style="fill: #a9a9a9" transform="translate(519.70712 334.998438)scale(0.1 -0.1)">
       <defs>
        <path id="DejaVuSans-33" d="M 2597 2516 
Q 3050 2419 3304 2112 
Q 3559 1806 3559 1356 
Q 3559 666 3084 287 
Q 2609 -91 1734 -91 
Q 1441 -91 1130 -33 
Q 819 25 488 141 
L 488 750 
Q 750 597 1062 519 
Q 1375 441 1716 441 
Q 2309 441 2620 675 
Q 2931 909 2931 1356 
Q 2931 1769 2642 2001 
Q 2353 2234 1838 2234 
L 1294 2234 
L 1294 2753 
L 1863 2753 
Q 2328 2753 2575 2939 
Q 2822 3125 2822 3475 
Q 2822 3834 2567 4026 
Q 2313 4219 1838 4219 
Q 1578 4219 1281 4162 
Q 984 4106 628 3988 
L 628 4550 
Q 988 4650 1302 4700 
Q 1616 4750 1894 4750 
Q 2613 4750 3031 4423 
Q 3450 4097 3450 3541 
Q 3450 3153 3228 2886 
Q 3006 2619 2597 2516 
z
" transform="scale(0.015625)"/>
       </defs>
       <use xlink:href="#DejaVuSans-32"/>
       <use xlink:href="#DejaVuSans-30" x="63.623047"/>
       <use xlink:href="#DejaVuSans-32" x="127.246094"/>
       <use xlink:href="#DejaVuSans-32" x="190.869141"/>
       <use xlink:href="#DejaVuSans-2d" x="254.492188"/>
       <use xlink:href="#DejaVuSans-30" x="290.576172"/>
       <use xlink:href="#DejaVuSans-33" x="354.199219"/>
      </g>
     </g>
    </g>
    <g id="xtick_5">
     <g id="line2d_9">
      <path d="M 652.107125 320.4 
L 652.107125 43.2 
" clip-path="url(#pcf84d73c8f)" style="fill: none; stroke-dasharray: 5.12,1.28,0.8,1.28; stroke-dashoffset: 0; stroke: #b0b0b0; stroke-width: 0.8"/>
     </g>
     <g id="line2d_10">
      <g>
       <use xlink:href="#ma9e594b3cc" x="652.107125" y="320.4" style="fill: #a9a9a9; stroke: #a9a9a9; stroke-width: 0.8"/>
      </g>
     </g>
     <g id="text_5">
      <!-- 2022-05 -->
      <g style="fill: #a9a9a9" transform="translate(631.215719 334.998438)scale(0.1 -0.1)">
       <defs>
        <path id="DejaVuSans-35" d="M 691 4666 
L 3169 4666 
L 3169 4134 
L 1269 4134 
L 1269 2991 
Q 1406 3038 1543 3061 
Q 1681 3084 1819 3084 
Q 2600 3084 3056 2656 
Q 3513 2228 3513 1497 
Q 3513 744 3044 326 
Q 2575 -91 1722 -91 
Q 1428 -91 1123 -41 
Q 819 9 494 109 
L 494 744 
Q 775 591 1075 516 
Q 1375 441 1709 441 
Q 2250 441 2565 725 
Q 2881 1009 2881 1497 
Q 2881 1984 2565 2268 
Q 2250 2553 1709 2553 
Q 1456 2553 1204 2497 
Q 953 2441 691 2322 
L 691 4666 
z
" transform="scale(0.015625)"/>
       </defs>
       <use xlink:href="#DejaVuSans-32"/>
       <use xlink:href="#DejaVuSans-30" x="63.623047"/>
       <use xlink:href="#DejaVuSans-32" x="127.246094"/>
       <use xlink:href="#DejaVuSans-32" x="190.869141"/>
       <use xlink:href="#DejaVuSans-2d" x="254.492188"/>
       <use xlink:href="#DejaVuSans-30" x="290.576172"/>
       <use xlink:href="#DejaVuSans-35" x="354.199219"/>
      </g>
     </g>
    </g>
    <g id="xtick_6">
     <g id="line2d_11">
      <path d="M 763.615725 320.4 
L 763.615725 43.2 
" clip-path="url(#pcf84d73c8f)" style="fill: none; stroke-dasharray: 5.12,1.28,0.8,1.28; stroke-dashoffset: 0; stroke: #b0b0b0; stroke-width: 0.8"/>
     </g>
     <g id="line2d_12">
      <g>
       <use xlink:href="#ma9e594b3cc" x="763.615725" y="320.4" style="fill: #a9a9a9; stroke: #a9a9a9; stroke-width: 0.8"/>
      </g>
     </g>
     <g id="text_6">
      <!-- 2022-07 -->
      <g style="fill: #a9a9a9" transform="translate(742.724319 334.998438)scale(0.1 -0.1)">
       <defs>
        <path id="DejaVuSans-37" d="M 525 4666 
L 3525 4666 
L 3525 4397 
L 1831 0 
L 1172 0 
L 2766 4134 
L 525 4134 
L 525 4666 
z
" transform="scale(0.015625)"/>
       </defs>
       <use xlink:href="#DejaVuSans-32"/>
       <use xlink:href="#DejaVuSans-30" x="63.623047"/>
       <use xlink:href="#DejaVuSans-32" x="127.246094"/>
       <use xlink:href="#DejaVuSans-32" x="190.869141"/>
       <use xlink:href="#DejaVuSans-2d" x="254.492188"/>
       <use xlink:href="#DejaVuSans-30" x="290.576172"/>
       <use xlink:href="#DejaVuSans-37" x="354.199219"/>
      </g>
     </g>
    </g>
   </g>
   <g id="matplotlib.axis_2">
    <g id="ytick_1">
     <g id="line2d_13">
      <path d="M 108 307.917264 
L 777.6 307.917264 
" clip-path="url(#pcf84d73c8f)" style="fill: none; stroke-dasharray: 5.12,1.28,0.8,1.28; stroke-dashoffset: 0; stroke: #b0b0b0; stroke-width: 0.8"/>
     </g>
     <g id="line2d_14">
      <defs>
       <path id="ma4d585b794" d="M 0 0 
L -3.5 0 
" style="stroke: #a9a9a9; stroke-width: 0.8"/>
      </defs>
      <g>
       <use xlink:href="#ma4d585b794" x="108" y="307.917264" style="fill: #a9a9a9; stroke: #a9a9a9; stroke-width: 0.8"/>
      </g>
     </g>
     <g id="text_7">
      <!-- 0 -->
      <g style="fill: #a9a9a9" transform="translate(94.6375 311.716483)scale(0.1 -0.1)">
       <use xlink:href="#DejaVuSans-30"/>
      </g>
     </g>
    </g>
    <g id="ytick_2">
     <g id="line2d_15">
      <path d="M 108 278.601303 
L 777.6 278.601303 
" clip-path="url(#pcf84d73c8f)" style="fill: none; stroke-dasharray: 5.12,1.28,0.8,1.28; stroke-dashoffset: 0; stroke: #b0b0b0; stroke-width: 0.8"/>
     </g>
     <g id="line2d_16">
      <g>
       <use xlink:href="#ma4d585b794" x="108" y="278.601303" style="fill: #a9a9a9; stroke: #a9a9a9; stroke-width: 0.8"/>
      </g>
     </g>
     <g id="text_8">
      <!-- 250 -->
      <g style="fill: #a9a9a9" transform="translate(81.9125 282.400522)scale(0.1 -0.1)">
       <use xlink:href="#DejaVuSans-32"/>
       <use xlink:href="#DejaVuSans-35" x="63.623047"/>
       <use xlink:href="#DejaVuSans-30" x="127.246094"/>
      </g>
     </g>
    </g>
    <g id="ytick_3">
     <g id="line2d_17">
      <path d="M 108 249.285342 
L 777.6 249.285342 
" clip-path="url(#pcf84d73c8f)" style="fill: none; stroke-dasharray: 5.12,1.28,0.8,1.28; stroke-dashoffset: 0; stroke: #b0b0b0; stroke-width: 0.8"/>
     </g>
     <g id="line2d_18">
      <g>
       <use xlink:href="#ma4d585b794" x="108" y="249.285342" style="fill: #a9a9a9; stroke: #a9a9a9; stroke-width: 0.8"/>
      </g>
     </g>
     <g id="text_9">
      <!-- 500 -->
      <g style="fill: #a9a9a9" transform="translate(81.9125 253.084561)scale(0.1 -0.1)">
       <use xlink:href="#DejaVuSans-35"/>
       <use xlink:href="#DejaVuSans-30" x="63.623047"/>
       <use xlink:href="#DejaVuSans-30" x="127.246094"/>
      </g>
     </g>
    </g>
    <g id="ytick_4">
     <g id="line2d_19">
      <path d="M 108 219.969381 
L 777.6 219.969381 
" clip-path="url(#pcf84d73c8f)" style="fill: none; stroke-dasharray: 5.12,1.28,0.8,1.28; stroke-dashoffset: 0; stroke: #b0b0b0; stroke-width: 0.8"/>
     </g>
     <g id="line2d_20">
      <g>
       <use xlink:href="#ma4d585b794" x="108" y="219.969381" style="fill: #a9a9a9; stroke: #a9a9a9; stroke-width: 0.8"/>
      </g>
     </g>
     <g id="text_10">
      <!-- 750 -->
      <g style="fill: #a9a9a9" transform="translate(81.9125 223.7686)scale(0.1 -0.1)">
       <use xlink:href="#DejaVuSans-37"/>
       <use xlink:href="#DejaVuSans-35" x="63.623047"/>
       <use xlink:href="#DejaVuSans-30" x="127.246094"/>
      </g>
     </g>
    </g>
    <g id="ytick_5">
     <g id="line2d_21">
      <path d="M 108 190.65342 
L 777.6 190.65342 
" clip-path="url(#pcf84d73c8f)" style="fill: none; stroke-dasharray: 5.12,1.28,0.8,1.28; stroke-dashoffset: 0; stroke: #b0b0b0; stroke-width: 0.8"/>
     </g>
     <g id="line2d_22">
      <g>
       <use xlink:href="#ma4d585b794" x="108" y="190.65342" style="fill: #a9a9a9; stroke: #a9a9a9; stroke-width: 0.8"/>
      </g>
     </g>
     <g id="text_11">
      <!-- 1000 -->
      <g style="fill: #a9a9a9" transform="translate(75.55 194.452639)scale(0.1 -0.1)">
       <use xlink:href="#DejaVuSans-31"/>
       <use xlink:href="#DejaVuSans-30" x="63.623047"/>
       <use xlink:href="#DejaVuSans-30" x="127.246094"/>
       <use xlink:href="#DejaVuSans-30" x="190.869141"/>
      </g>
     </g>
    </g>
    <g id="ytick_6">
     <g id="line2d_23">
      <path d="M 108 161.337459 
L 777.6 161.337459 
" clip-path="url(#pcf84d73c8f)" style="fill: none; stroke-dasharray: 5.12,1.28,0.8,1.28; stroke-dashoffset: 0; stroke: #b0b0b0; stroke-width: 0.8"/>
     </g>
     <g id="line2d_24">
      <g>
       <use xlink:href="#ma4d585b794" x="108" y="161.337459" style="fill: #a9a9a9; stroke: #a9a9a9; stroke-width: 0.8"/>
      </g>
     </g>
     <g id="text_12">
      <!-- 1250 -->
      <g style="fill: #a9a9a9" transform="translate(75.55 165.136678)scale(0.1 -0.1)">
       <use xlink:href="#DejaVuSans-31"/>
       <use xlink:href="#DejaVuSans-32" x="63.623047"/>
       <use xlink:href="#DejaVuSans-35" x="127.246094"/>
       <use xlink:href="#DejaVuSans-30" x="190.869141"/>
      </g>
     </g>
    </g>
    <g id="ytick_7">
     <g id="line2d_25">
      <path d="M 108 132.021498 
L 777.6 132.021498 
" clip-path="url(#pcf84d73c8f)" style="fill: none; stroke-dasharray: 5.12,1.28,0.8,1.28; stroke-dashoffset: 0; stroke: #b0b0b0; stroke-width: 0.8"/>
     </g>
     <g id="line2d_26">
      <g>
       <use xlink:href="#ma4d585b794" x="108" y="132.021498" style="fill: #a9a9a9; stroke: #a9a9a9; stroke-width: 0.8"/>
      </g>
     </g>
     <g id="text_13">
      <!-- 1500 -->
      <g style="fill: #a9a9a9" transform="translate(75.55 135.820717)scale(0.1 -0.1)">
       <use xlink:href="#DejaVuSans-31"/>
       <use xlink:href="#DejaVuSans-35" x="63.623047"/>
       <use xlink:href="#DejaVuSans-30" x="127.246094"/>
       <use xlink:href="#DejaVuSans-30" x="190.869141"/>
      </g>
     </g>
    </g>
    <g id="ytick_8">
     <g id="line2d_27">
      <path d="M 108 102.705537 
L 777.6 102.705537 
" clip-path="url(#pcf84d73c8f)" style="fill: none; stroke-dasharray: 5.12,1.28,0.8,1.28; stroke-dashoffset: 0; stroke: #b0b0b0; stroke-width: 0.8"/>
     </g>
     <g id="line2d_28">
      <g>
       <use xlink:href="#ma4d585b794" x="108" y="102.705537" style="fill: #a9a9a9; stroke: #a9a9a9; stroke-width: 0.8"/>
      </g>
     </g>
     <g id="text_14">
      <!-- 1750 -->
      <g style="fill: #a9a9a9" transform="translate(75.55 106.504756)scale(0.1 -0.1)">
       <use xlink:href="#DejaVuSans-31"/>
       <use xlink:href="#DejaVuSans-37" x="63.623047"/>
       <use xlink:href="#DejaVuSans-35" x="127.246094"/>
       <use xlink:href="#DejaVuSans-30" x="190.869141"/>
      </g>
     </g>
    </g>
    <g id="ytick_9">
     <g id="line2d_29">
      <path d="M 108 73.389577 
L 777.6 73.389577 
" clip-path="url(#pcf84d73c8f)" style="fill: none; stroke-dasharray: 5.12,1.28,0.8,1.28; stroke-dashoffset: 0; stroke: #b0b0b0; stroke-width: 0.8"/>
     </g>
     <g id="line2d_30">
      <g>
       <use xlink:href="#ma4d585b794" x="108" y="73.389577" style="fill: #a9a9a9; stroke: #a9a9a9; stroke-width: 0.8"/>
      </g>
     </g>
     <g id="text_15">
      <!-- 2000 -->
      <g style="fill: #a9a9a9" transform="translate(75.55 77.188795)scale(0.1 -0.1)">
       <use xlink:href="#DejaVuSans-32"/>
       <use xlink:href="#DejaVuSans-30" x="63.623047"/>
       <use xlink:href="#DejaVuSans-30" x="127.246094"/>
       <use xlink:href="#DejaVuSans-30" x="190.869141"/>
      </g>
     </g>
    </g>
    <g id="ytick_10">
     <g id="line2d_31">
      <path d="M 108 44.073616 
L 777.6 44.073616 
" clip-path="url(#pcf84d73c8f)" style="fill: none; stroke-dasharray: 5.12,1.28,0.8,1.28; stroke-dashoffset: 0; stroke: #b0b0b0; stroke-width: 0.8"/>
     </g>
     <g id="line2d_32">
      <g>
       <use xlink:href="#ma4d585b794" x="108" y="44.073616" style="fill: #a9a9a9; stroke: #a9a9a9; stroke-width: 0.8"/>
      </g>
     </g>
     <g id="text_16">
      <!-- 2250 -->
      <g style="fill: #a9a9a9" transform="translate(75.55 47.872834)scale(0.1 -0.1)">
       <use xlink:href="#DejaVuSans-32"/>
       <use xlink:href="#DejaVuSans-32" x="63.623047"/>
       <use xlink:href="#DejaVuSans-35" x="127.246094"/>
       <use xlink:href="#DejaVuSans-30" x="190.869141"/>
      </g>
     </g>
    </g>
   </g>
   <g id="line2d_33">
    <path d="M 138.436364 307.448208 
L 142.092383 307.213681 
L 147.576413 306.510098 
L 149.404423 306.510098 
L 151.232432 305.806515 
L 154.888452 305.571987 
L 158.544472 304.868404 
L 160.372482 304.633876 
L 162.200491 304.164821 
L 164.028501 303.930293 
L 165.856511 303.461238 
L 167.684521 303.109446 
L 169.512531 302.992182 
L 171.340541 302.757655 
L 173.16855 302.405863 
L 178.65258 302.054072 
L 180.48059 301.115961 
L 182.3086 300.646906 
L 184.136609 298.536156 
L 185.964619 297.363518 
L 187.792629 293.14202 
L 189.620639 292.907492 
L 191.448649 291.500326 
L 193.276658 290.796743 
L 195.104668 289.741368 
L 200.588698 285.402606 
L 202.416708 284.464495 
L 206.072727 282.940065 
L 207.900737 281.650163 
L 209.728747 280.94658 
L 213.384767 278.718567 
L 215.212776 278.014984 
L 217.040786 275.083388 
L 218.868796 273.676221 
L 220.696806 272.620847 
L 222.524816 271.8 
L 228.008845 271.096417 
L 231.664865 270.392834 
L 233.492875 270.158306 
L 235.320885 269.806515 
L 238.976904 269.571987 
L 240.804914 269.102932 
L 242.632924 268.164821 
L 246.288943 267.930293 
L 248.116953 267.930293 
L 249.944963 267.578502 
L 253.600983 267.109446 
L 255.428993 266.992182 
L 257.257002 266.288599 
L 259.085012 265.936808 
L 260.913022 265.467752 
L 262.741032 265.115961 
L 264.569042 264.881433 
L 266.397052 264.529642 
L 268.225061 264.412378 
L 270.053071 264.17785 
L 271.881081 263.708795 
L 273.709091 263.474267 
L 275.537101 263.357003 
L 277.365111 263.005212 
L 279.19312 262.067101 
L 281.02113 261.832573 
L 284.67715 260.542671 
L 286.50516 260.308143 
L 288.33317 260.190879 
L 290.161179 259.60456 
L 291.989189 259.252769 
L 293.817199 259.135505 
L 295.645209 258.66645 
L 297.473219 258.431922 
L 301.129238 257.259283 
L 302.957248 257.024756 
L 304.785258 257.024756 
L 306.613268 256.790228 
L 308.441278 256.672964 
L 310.269287 256.438436 
L 312.097297 255.852117 
L 313.925307 255.734853 
L 315.753317 255.148534 
L 319.409337 254.210423 
L 321.237346 253.975896 
L 324.893366 253.741368 
L 326.721376 253.389577 
L 328.549386 253.155049 
L 330.377396 252.685993 
L 332.205405 251.98241 
L 334.033415 249.637134 
L 335.861425 248.93355 
L 337.689435 247.99544 
L 339.517445 247.760912 
L 341.345455 247.291857 
L 343.173464 247.057329 
L 346.829484 245.532899 
L 348.657494 245.415635 
L 352.313514 244.477524 
L 354.141523 243.891205 
L 357.797543 242.953094 
L 359.625553 242.953094 
L 363.281572 242.484039 
L 365.109582 241.780456 
L 366.937592 241.311401 
L 370.593612 240.138762 
L 372.421622 239.786971 
L 374.249631 239.669707 
L 377.905651 238.145277 
L 379.733661 237.910749 
L 381.561671 237.089902 
L 383.389681 236.855375 
L 387.0457 236.620847 
L 388.87371 236.269055 
L 390.70172 235.8 
L 392.52973 235.682736 
L 394.35774 235.448208 
L 398.013759 234.744625 
L 399.841769 234.510098 
L 401.669779 234.041042 
L 403.497789 233.454723 
L 405.325799 233.220195 
L 407.153808 232.399349 
L 408.981818 231.813029 
L 410.809828 230.757655 
L 412.637838 230.288599 
L 414.465848 230.054072 
L 418.121867 228.881433 
L 421.777887 226.887948 
L 423.605897 225.598046 
L 425.433907 225.363518 
L 427.261916 224.777199 
L 429.089926 224.542671 
L 430.917936 224.073616 
L 432.745946 223.839088 
L 434.573956 223.018241 
L 438.229975 222.314658 
L 441.885995 220.5557 
L 443.714005 220.086645 
L 445.542015 219.852117 
L 447.370025 219.148534 
L 449.198034 218.796743 
L 451.026044 218.327687 
L 452.854054 217.975896 
L 454.682064 217.741368 
L 458.338084 216.099674 
L 460.166093 215.747883 
L 461.994103 214.927036 
L 463.822113 214.692508 
L 465.650123 213.871661 
L 467.478133 213.402606 
L 469.306143 213.168078 
L 471.134152 213.050814 
L 472.962162 212.464495 
L 474.790172 211.760912 
L 476.618182 211.526384 
L 478.446192 211.526384 
L 480.274201 210.705537 
L 482.102211 210.353746 
L 483.930221 210.119218 
L 485.758231 209.415635 
L 487.586241 209.415635 
L 489.414251 209.298371 
L 491.24226 209.063844 
L 493.07027 208.94658 
L 494.89828 208.712052 
L 496.72629 208.360261 
L 500.38231 206.601303 
L 504.038329 204.959609 
L 505.866339 204.490554 
L 507.694349 203.317915 
L 509.522359 202.731596 
L 513.178378 201.089902 
L 515.006388 200.738111 
L 516.834398 199.917264 
L 518.662408 199.330945 
L 520.490418 198.041042 
L 522.318428 197.102932 
L 524.146437 195.22671 
L 525.974447 192.060586 
L 527.802457 189.480782 
L 529.630467 188.894463 
L 531.458477 188.777199 
L 535.114496 186.08013 
L 536.942506 185.611075 
L 538.770516 184.5557 
L 540.598526 184.203909 
L 542.426536 182.562215 
L 544.254545 182.09316 
L 549.738575 179.630619 
L 551.566585 177.51987 
L 553.394595 174.588274 
L 555.222604 173.532899 
L 557.050614 170.601303 
L 558.878624 168.842345 
L 560.706634 167.904235 
L 562.534644 167.317915 
L 564.362654 166.028013 
L 568.018673 164.269055 
L 569.846683 162.979153 
L 571.674693 161.454723 
L 575.330713 158.992182 
L 577.158722 156.295114 
L 578.986732 151.956352 
L 580.814742 149.259283 
L 582.642752 147.734853 
L 584.470762 146.796743 
L 588.126781 143.278827 
L 591.782801 140.347231 
L 595.438821 137.415635 
L 597.26683 135.773941 
L 599.09484 133.194137 
L 600.92285 131.435179 
L 602.75086 130.028013 
L 606.40688 127.565472 
L 611.890909 123.343974 
L 613.718919 122.874919 
L 619.202948 119.943322 
L 622.858968 117.949837 
L 624.686978 117.12899 
L 628.342998 113.962866 
L 630.171007 111.61759 
L 633.827027 109.155049 
L 635.655037 108.685993 
L 637.483047 107.747883 
L 639.311057 106.45798 
L 642.967076 104.581759 
L 644.795086 104.229967 
L 650.279115 100.829316 
L 652.107125 99.070358 
L 653.935135 97.780456 
L 655.763145 97.194137 
L 657.591155 95.904235 
L 659.419165 95.083388 
L 661.247174 93.793485 
L 663.075184 92.972638 
L 664.903194 91.8 
L 666.731204 90.27557 
L 668.559214 89.689251 
L 670.387224 88.985668 
L 672.215233 88.047557 
L 674.043243 87.461238 
L 675.871253 86.288599 
L 677.699263 85.819544 
L 692.323342 80.190879 
L 695.979361 79.487296 
L 697.807371 77.728339 
L 699.635381 76.321173 
L 701.463391 75.61759 
L 708.77543 71.396091 
L 710.60344 70.575244 
L 712.43145 69.988925 
L 714.259459 68.581759 
L 716.087469 67.878176 
L 721.571499 64.477524 
L 723.399509 64.125733 
L 725.227518 63.656678 
L 727.055528 63.304886 
L 728.883538 62.718567 
L 730.711548 62.249511 
L 736.195577 59.200651 
L 738.023587 58.966124 
L 739.851597 58.262541 
L 741.679607 57.910749 
L 743.507617 57.089902 
L 745.335627 55.8 
L 747.163636 55.8 
L 747.163636 55.8 
" clip-path="url(#pcf84d73c8f)" style="fill: none; stroke: #1f77b4; stroke-width: 1.5; stroke-linecap: square"/>
   </g>
   <g id="line2d_34">
    <path d="M 140.264373 307.8 
L 143.920393 307.8 
L 147.576413 307.330945 
L 156.716462 307.330945 
L 160.372482 307.096417 
L 162.200491 307.096417 
L 164.028501 306.979153 
L 167.684521 306.979153 
L 171.340541 306.744625 
L 178.65258 306.744625 
L 180.48059 306.27557 
L 182.3086 306.27557 
L 184.136609 306.041042 
L 185.964619 306.041042 
L 187.792629 305.806515 
L 189.620639 305.689251 
L 195.104668 304.985668 
L 200.588698 304.633876 
L 202.416708 304.633876 
L 206.072727 304.399349 
L 207.900737 304.164821 
L 211.556757 304.164821 
L 213.384767 303.813029 
L 215.212776 303.813029 
L 217.040786 303.695765 
L 218.868796 303.695765 
L 222.524816 303.22671 
L 229.836855 303.22671 
L 231.664865 302.992182 
L 238.976904 302.992182 
L 242.632924 302.757655 
L 244.460934 302.757655 
L 246.288943 302.640391 
L 257.257002 302.640391 
L 259.085012 302.523127 
L 262.741032 302.523127 
L 264.569042 302.405863 
L 270.053071 302.405863 
L 271.881081 302.288599 
L 273.709091 302.288599 
L 275.537101 302.171336 
L 277.365111 302.171336 
L 279.19312 302.054072 
L 286.50516 302.054072 
L 288.33317 301.819544 
L 290.161179 301.819544 
L 291.989189 301.70228 
L 293.817199 301.70228 
L 297.473219 301.467752 
L 299.301229 301.467752 
L 301.129238 301.350489 
L 308.441278 301.350489 
L 310.269287 301.233225 
L 313.925307 301.233225 
L 315.753317 301.115961 
L 321.237346 301.115961 
L 323.065356 300.998697 
L 324.893366 300.998697 
L 326.721376 300.764169 
L 328.549386 300.646906 
L 330.377396 300.295114 
L 332.205405 300.295114 
L 334.033415 300.17785 
L 339.517445 300.17785 
L 341.345455 300.060586 
L 343.173464 299.826059 
L 346.829484 299.826059 
L 348.657494 299.708795 
L 350.485504 299.708795 
L 352.313514 299.591531 
L 357.797543 299.591531 
L 361.453563 299.357003 
L 365.109582 299.357003 
L 366.937592 299.239739 
L 368.765602 299.005212 
L 370.593612 298.887948 
L 372.421622 298.65342 
L 374.249631 298.536156 
L 376.077641 298.536156 
L 377.905651 298.418893 
L 379.733661 298.418893 
L 381.561671 298.301629 
L 383.389681 298.301629 
L 385.21769 298.184365 
L 390.70172 298.184365 
L 392.52973 297.949837 
L 398.013759 297.949837 
L 399.841769 297.715309 
L 401.669779 297.598046 
L 403.497789 297.363518 
L 405.325799 297.363518 
L 407.153808 297.246254 
L 408.981818 297.246254 
L 410.809828 297.12899 
L 416.293857 297.12899 
L 418.121867 296.894463 
L 419.949877 296.542671 
L 425.433907 296.190879 
L 427.261916 295.839088 
L 429.089926 295.839088 
L 430.917936 295.721824 
L 434.573956 295.721824 
L 436.401966 295.60456 
L 438.229975 295.370033 
L 440.057985 295.252769 
L 441.885995 295.018241 
L 447.370025 294.66645 
L 449.198034 294.66645 
L 452.854054 294.431922 
L 456.510074 294.431922 
L 461.994103 294.08013 
L 465.650123 294.08013 
L 467.478133 293.845603 
L 471.134152 293.611075 
L 474.790172 293.611075 
L 476.618182 293.376547 
L 478.446192 293.376547 
L 482.102211 293.14202 
L 483.930221 292.907492 
L 487.586241 292.907492 
L 489.414251 292.790228 
L 491.24226 292.790228 
L 496.72629 292.438436 
L 502.210319 292.438436 
L 505.866339 292.203909 
L 513.178378 292.203909 
L 515.006388 292.086645 
L 516.834398 292.086645 
L 518.662408 291.852117 
L 520.490418 291.500326 
L 524.146437 291.265798 
L 525.974447 291.265798 
L 527.802457 291.03127 
L 529.630467 290.914007 
L 531.458477 290.914007 
L 535.114496 290.679479 
L 536.942506 290.679479 
L 538.770516 290.327687 
L 540.598526 290.210423 
L 542.426536 289.975896 
L 544.254545 289.50684 
L 547.910565 289.272313 
L 549.738575 288.803257 
L 551.566585 288.685993 
L 553.394595 288.451466 
L 555.222604 288.334202 
L 557.050614 287.865147 
L 558.878624 287.513355 
L 560.706634 287.396091 
L 562.534644 287.396091 
L 564.362654 287.278827 
L 566.190663 287.278827 
L 568.018673 287.0443 
L 569.846683 287.0443 
L 571.674693 286.809772 
L 575.330713 286.106189 
L 577.158722 285.637134 
L 580.814742 285.168078 
L 582.642752 285.168078 
L 586.298771 284.699023 
L 588.126781 284.699023 
L 593.610811 284.347231 
L 597.26683 283.878176 
L 600.92285 283.643648 
L 602.75086 283.643648 
L 604.57887 283.526384 
L 606.40688 283.291857 
L 608.234889 283.174593 
L 611.890909 283.174593 
L 613.718919 282.940065 
L 615.546929 282.588274 
L 617.374939 282.47101 
L 619.202948 282.236482 
L 621.030958 282.236482 
L 622.858968 281.884691 
L 624.686978 281.650163 
L 626.514988 281.298371 
L 630.171007 281.063844 
L 635.655037 281.063844 
L 637.483047 280.594788 
L 639.311057 280.360261 
L 641.139066 280.360261 
L 644.795086 280.125733 
L 646.623096 280.125733 
L 648.451106 279.773941 
L 650.279115 279.656678 
L 652.107125 279.656678 
L 655.763145 279.187622 
L 657.591155 278.835831 
L 659.419165 278.366775 
L 661.247174 278.132248 
L 663.075184 278.132248 
L 666.731204 277.89772 
L 668.559214 277.663192 
L 670.387224 277.663192 
L 674.043243 277.428664 
L 677.699263 277.428664 
L 681.355283 277.194137 
L 683.183292 277.194137 
L 686.839312 276.725081 
L 688.667322 276.607818 
L 690.495332 276.607818 
L 694.151351 276.37329 
L 695.979361 276.138762 
L 701.463391 275.786971 
L 706.94742 275.786971 
L 708.77543 275.552443 
L 710.60344 275.435179 
L 714.259459 275.435179 
L 716.087469 275.083388 
L 717.915479 274.966124 
L 719.743489 274.731596 
L 721.571499 274.614332 
L 723.399509 274.614332 
L 725.227518 274.379805 
L 728.883538 274.379805 
L 730.711548 274.262541 
L 732.539558 273.910749 
L 736.195577 273.910749 
L 738.023587 273.676221 
L 739.851597 273.676221 
L 745.335627 273.32443 
L 747.163636 273.32443 
L 747.163636 273.32443 
" clip-path="url(#pcf84d73c8f)" style="fill: none; stroke: #ff7f0e; stroke-width: 1.5; stroke-linecap: square"/>
   </g>
   <g id="patch_3">
    <path d="M 108 320.4 
L 108 43.2 
" style="fill: none; stroke: #a9a9a9; stroke-width: 0.8; stroke-linejoin: miter; stroke-linecap: square"/>
   </g>
   <g id="patch_4">
    <path d="M 777.6 320.4 
L 777.6 43.2 
" style="fill: none"/>
   </g>
   <g id="patch_5">
    <path d="M 108 320.4 
L 777.6 320.4 
" style="fill: none; stroke: #a9a9a9; stroke-width: 0.8; stroke-linejoin: miter; stroke-linecap: square"/>
   </g>
   <g id="patch_6">
    <path d="M 108 43.2 
L 777.6 43.2 
" style="fill: none"/>
   </g>
   <g id="text_17">
    <!-- get_subscribe history -->
    <g style="fill: #a9a9a9" transform="translate(378.6075 37.2)scale(0.12 -0.12)">
     <defs>
      <path id="DejaVuSans-67" d="M 2906 1791 
Q 2906 2416 2648 2759 
Q 2391 3103 1925 3103 
Q 1463 3103 1205 2759 
Q 947 2416 947 1791 
Q 947 1169 1205 825 
Q 1463 481 1925 481 
Q 2391 481 2648 825 
Q 2906 1169 2906 1791 
z
M 3481 434 
Q 3481 -459 3084 -895 
Q 2688 -1331 1869 -1331 
Q 1566 -1331 1297 -1286 
Q 1028 -1241 775 -1147 
L 775 -588 
Q 1028 -725 1275 -790 
Q 1522 -856 1778 -856 
Q 2344 -856 2625 -561 
Q 2906 -266 2906 331 
L 2906 616 
Q 2728 306 2450 153 
Q 2172 0 1784 0 
Q 1141 0 747 490 
Q 353 981 353 1791 
Q 353 2603 747 3093 
Q 1141 3584 1784 3584 
Q 2172 3584 2450 3431 
Q 2728 3278 2906 2969 
L 2906 3500 
L 3481 3500 
L 3481 434 
z
" transform="scale(0.015625)"/>
      <path id="DejaVuSans-65" d="M 3597 1894 
L 3597 1613 
L 953 1613 
Q 991 1019 1311 708 
Q 1631 397 2203 397 
Q 2534 397 2845 478 
Q 3156 559 3463 722 
L 3463 178 
Q 3153 47 2828 -22 
Q 2503 -91 2169 -91 
Q 1331 -91 842 396 
Q 353 884 353 1716 
Q 353 2575 817 3079 
Q 1281 3584 2069 3584 
Q 2775 3584 3186 3129 
Q 3597 2675 3597 1894 
z
M 3022 2063 
Q 3016 2534 2758 2815 
Q 2500 3097 2075 3097 
Q 1594 3097 1305 2825 
Q 1016 2553 972 2059 
L 3022 2063 
z
" transform="scale(0.015625)"/>
      <path id="DejaVuSans-74" d="M 1172 4494 
L 1172 3500 
L 2356 3500 
L 2356 3053 
L 1172 3053 
L 1172 1153 
Q 1172 725 1289 603 
Q 1406 481 1766 481 
L 2356 481 
L 2356 0 
L 1766 0 
Q 1100 0 847 248 
Q 594 497 594 1153 
L 594 3053 
L 172 3053 
L 172 3500 
L 594 3500 
L 594 4494 
L 1172 4494 
z
" transform="scale(0.015625)"/>
      <path id="DejaVuSans-5f" d="M 3263 -1063 
L 3263 -1509 
L -63 -1509 
L -63 -1063 
L 3263 -1063 
z
" transform="scale(0.015625)"/>
      <path id="DejaVuSans-73" d="M 2834 3397 
L 2834 2853 
Q 2591 2978 2328 3040 
Q 2066 3103 1784 3103 
Q 1356 3103 1142 2972 
Q 928 2841 928 2578 
Q 928 2378 1081 2264 
Q 1234 2150 1697 2047 
L 1894 2003 
Q 2506 1872 2764 1633 
Q 3022 1394 3022 966 
Q 3022 478 2636 193 
Q 2250 -91 1575 -91 
Q 1294 -91 989 -36 
Q 684 19 347 128 
L 347 722 
Q 666 556 975 473 
Q 1284 391 1588 391 
Q 1994 391 2212 530 
Q 2431 669 2431 922 
Q 2431 1156 2273 1281 
Q 2116 1406 1581 1522 
L 1381 1569 
Q 847 1681 609 1914 
Q 372 2147 372 2553 
Q 372 3047 722 3315 
Q 1072 3584 1716 3584 
Q 2034 3584 2315 3537 
Q 2597 3491 2834 3397 
z
" transform="scale(0.015625)"/>
      <path id="DejaVuSans-75" d="M 544 1381 
L 544 3500 
L 1119 3500 
L 1119 1403 
Q 1119 906 1312 657 
Q 1506 409 1894 409 
Q 2359 409 2629 706 
Q 2900 1003 2900 1516 
L 2900 3500 
L 3475 3500 
L 3475 0 
L 2900 0 
L 2900 538 
Q 2691 219 2414 64 
Q 2138 -91 1772 -91 
Q 1169 -91 856 284 
Q 544 659 544 1381 
z
M 1991 3584 
L 1991 3584 
z
" transform="scale(0.015625)"/>
      <path id="DejaVuSans-62" d="M 3116 1747 
Q 3116 2381 2855 2742 
Q 2594 3103 2138 3103 
Q 1681 3103 1420 2742 
Q 1159 2381 1159 1747 
Q 1159 1113 1420 752 
Q 1681 391 2138 391 
Q 2594 391 2855 752 
Q 3116 1113 3116 1747 
z
M 1159 2969 
Q 1341 3281 1617 3432 
Q 1894 3584 2278 3584 
Q 2916 3584 3314 3078 
Q 3713 2572 3713 1747 
Q 3713 922 3314 415 
Q 2916 -91 2278 -91 
Q 1894 -91 1617 61 
Q 1341 213 1159 525 
L 1159 0 
L 581 0 
L 581 4863 
L 1159 4863 
L 1159 2969 
z
" transform="scale(0.015625)"/>
      <path id="DejaVuSans-63" d="M 3122 3366 
L 3122 2828 
Q 2878 2963 2633 3030 
Q 2388 3097 2138 3097 
Q 1578 3097 1268 2742 
Q 959 2388 959 1747 
Q 959 1106 1268 751 
Q 1578 397 2138 397 
Q 2388 397 2633 464 
Q 2878 531 3122 666 
L 3122 134 
Q 2881 22 2623 -34 
Q 2366 -91 2075 -91 
Q 1284 -91 818 406 
Q 353 903 353 1747 
Q 353 2603 823 3093 
Q 1294 3584 2113 3584 
Q 2378 3584 2631 3529 
Q 2884 3475 3122 3366 
z
" transform="scale(0.015625)"/>
      <path id="DejaVuSans-72" d="M 2631 2963 
Q 2534 3019 2420 3045 
Q 2306 3072 2169 3072 
Q 1681 3072 1420 2755 
Q 1159 2438 1159 1844 
L 1159 0 
L 581 0 
L 581 3500 
L 1159 3500 
L 1159 2956 
Q 1341 3275 1631 3429 
Q 1922 3584 2338 3584 
Q 2397 3584 2469 3576 
Q 2541 3569 2628 3553 
L 2631 2963 
z
" transform="scale(0.015625)"/>
      <path id="DejaVuSans-69" d="M 603 3500 
L 1178 3500 
L 1178 0 
L 603 0 
L 603 3500 
z
M 603 4863 
L 1178 4863 
L 1178 4134 
L 603 4134 
L 603 4863 
z
" transform="scale(0.015625)"/>
      <path id="DejaVuSans-20" transform="scale(0.015625)"/>
      <path id="DejaVuSans-68" d="M 3513 2113 
L 3513 0 
L 2938 0 
L 2938 2094 
Q 2938 2591 2744 2837 
Q 2550 3084 2163 3084 
Q 1697 3084 1428 2787 
Q 1159 2491 1159 1978 
L 1159 0 
L 581 0 
L 581 4863 
L 1159 4863 
L 1159 2956 
Q 1366 3272 1645 3428 
Q 1925 3584 2291 3584 
Q 2894 3584 3203 3211 
Q 3513 2838 3513 2113 
z
" transform="scale(0.015625)"/>
      <path id="DejaVuSans-6f" d="M 1959 3097 
Q 1497 3097 1228 2736 
Q 959 2375 959 1747 
Q 959 1119 1226 758 
Q 1494 397 1959 397 
Q 2419 397 2687 759 
Q 2956 1122 2956 1747 
Q 2956 2369 2687 2733 
Q 2419 3097 1959 3097 
z
M 1959 3584 
Q 2709 3584 3137 3096 
Q 3566 2609 3566 1747 
Q 3566 888 3137 398 
Q 2709 -91 1959 -91 
Q 1206 -91 779 398 
Q 353 888 353 1747 
Q 353 2609 779 3096 
Q 1206 3584 1959 3584 
z
" transform="scale(0.015625)"/>
      <path id="DejaVuSans-79" d="M 2059 -325 
Q 1816 -950 1584 -1140 
Q 1353 -1331 966 -1331 
L 506 -1331 
L 506 -850 
L 844 -850 
Q 1081 -850 1212 -737 
Q 1344 -625 1503 -206 
L 1606 56 
L 191 3500 
L 800 3500 
L 1894 763 
L 2988 3500 
L 3597 3500 
L 2059 -325 
z
" transform="scale(0.015625)"/>
     </defs>
     <use xlink:href="#DejaVuSans-67"/>
     <use xlink:href="#DejaVuSans-65" x="63.476562"/>
     <use xlink:href="#DejaVuSans-74" x="125"/>
     <use xlink:href="#DejaVuSans-5f" x="164.208984"/>
     <use xlink:href="#DejaVuSans-73" x="214.208984"/>
     <use xlink:href="#DejaVuSans-75" x="266.308594"/>
     <use xlink:href="#DejaVuSans-62" x="329.6875"/>
     <use xlink:href="#DejaVuSans-73" x="393.164062"/>
     <use xlink:href="#DejaVuSans-63" x="445.263672"/>
     <use xlink:href="#DejaVuSans-72" x="500.244141"/>
     <use xlink:href="#DejaVuSans-69" x="541.357422"/>
     <use xlink:href="#DejaVuSans-62" x="569.140625"/>
     <use xlink:href="#DejaVuSans-65" x="632.617188"/>
     <use xlink:href="#DejaVuSans-20" x="694.140625"/>
     <use xlink:href="#DejaVuSans-68" x="725.927734"/>
     <use xlink:href="#DejaVuSans-69" x="789.306641"/>
     <use xlink:href="#DejaVuSans-73" x="817.089844"/>
     <use xlink:href="#DejaVuSans-74" x="869.189453"/>
     <use xlink:href="#DejaVuSans-6f" x="908.398438"/>
     <use xlink:href="#DejaVuSans-72" x="969.580078"/>
     <use xlink:href="#DejaVuSans-79" x="1010.693359"/>
    </g>
   </g>
   <g id="legend_1">
    <g id="line2d_35">
     <path d="M 815.08 328.498438 
L 825.08 328.498438 
L 835.08 328.498438 
" style="fill: none; stroke: #1f77b4; stroke-width: 1.5; stroke-linecap: square"/>
    </g>
    <g id="text_18">
     <!-- star -->
     <g style="fill: #a9a9a9" transform="translate(843.08 331.998438)scale(0.1 -0.1)">
      <defs>
       <path id="DejaVuSans-61" d="M 2194 1759 
Q 1497 1759 1228 1600 
Q 959 1441 959 1056 
Q 959 750 1161 570 
Q 1363 391 1709 391 
Q 2188 391 2477 730 
Q 2766 1069 2766 1631 
L 2766 1759 
L 2194 1759 
z
M 3341 1997 
L 3341 0 
L 2766 0 
L 2766 531 
Q 2569 213 2275 61 
Q 1981 -91 1556 -91 
Q 1019 -91 701 211 
Q 384 513 384 1019 
Q 384 1609 779 1909 
Q 1175 2209 1959 2209 
L 2766 2209 
L 2766 2266 
Q 2766 2663 2505 2880 
Q 2244 3097 1772 3097 
Q 1472 3097 1187 3025 
Q 903 2953 641 2809 
L 641 3341 
Q 956 3463 1253 3523 
Q 1550 3584 1831 3584 
Q 2591 3584 2966 3190 
Q 3341 2797 3341 1997 
z
" transform="scale(0.015625)"/>
      </defs>
      <use xlink:href="#DejaVuSans-73"/>
      <use xlink:href="#DejaVuSans-74" x="52.099609"/>
      <use xlink:href="#DejaVuSans-61" x="91.308594"/>
      <use xlink:href="#DejaVuSans-72" x="152.587891"/>
     </g>
    </g>
    <g id="line2d_36">
     <path d="M 815.08 343.176562 
L 825.08 343.176562 
L 835.08 343.176562 
" style="fill: none; stroke: #ff7f0e; stroke-width: 1.5; stroke-linecap: square"/>
    </g>
    <g id="text_19">
     <!-- fork -->
     <g style="fill: #a9a9a9" transform="translate(843.08 346.676562)scale(0.1 -0.1)">
      <defs>
       <path id="DejaVuSans-66" d="M 2375 4863 
L 2375 4384 
L 1825 4384 
Q 1516 4384 1395 4259 
Q 1275 4134 1275 3809 
L 1275 3500 
L 2222 3500 
L 2222 3053 
L 1275 3053 
L 1275 0 
L 697 0 
L 697 3053 
L 147 3053 
L 147 3500 
L 697 3500 
L 697 3744 
Q 697 4328 969 4595 
Q 1241 4863 1831 4863 
L 2375 4863 
z
" transform="scale(0.015625)"/>
       <path id="DejaVuSans-6b" d="M 581 4863 
L 1159 4863 
L 1159 1991 
L 2875 3500 
L 3609 3500 
L 1753 1863 
L 3688 0 
L 2938 0 
L 1159 1709 
L 1159 0 
L 581 0 
L 581 4863 
z
" transform="scale(0.015625)"/>
      </defs>
      <use xlink:href="#DejaVuSans-66"/>
      <use xlink:href="#DejaVuSans-6f" x="35.205078"/>
      <use xlink:href="#DejaVuSans-72" x="96.386719"/>
      <use xlink:href="#DejaVuSans-6b" x="137.5"/>
     </g>
    </g>
   </g>
  </g>
 </g>
 <defs>
  <clipPath id="pcf84d73c8f">
   <rect x="108" y="43.2" width="669.6" height="277.2"/>
  </clipPath>
 </defs>
</svg>
